<svg xmlns="http://www.w3.org/2000/svg" width="14" height="14" viewBox="0 0 14 14" fill="none">
    <path d="M10.5 3.49995H3.5C3.31435 3.49995 3.1363 3.5737 3.00503 3.70497C2.87375 3.83625 2.8 4.01429 2.8 4.19994C2.8 4.38559 2.87375 4.56364 3.00503 4.69491C3.1363 4.82618 3.31435 4.89993 3.5 4.89993H10.5C10.6857 4.89993 10.8637 4.82618 10.995 4.69491C11.1263 4.56364 11.2 4.38559 11.2 4.19994C11.2 4.01429 11.1263 3.83625 10.995 3.70497C10.8637 3.5737 10.6857 3.49995 10.5 3.49995ZM10.5 6.29991H3.5C3.31435 6.29991 3.1363 6.37366 3.00503 6.50493C2.87375 6.63621 2.8 6.81425 2.8 6.9999C2.8 7.18555 2.87375 7.3636 3.00503 7.49487C3.1363 7.62614 3.31435 7.69989 3.5 7.69989H10.5C10.6857 7.69989 10.8637 7.62614 10.995 7.49487C11.1263 7.3636 11.2 7.18555 11.2 6.9999C11.2 6.81425 11.1263 6.63621 10.995 6.50493C10.8637 6.37366 10.6857 6.29991 10.5 6.29991ZM11.9 0H2.1C1.54305 0 1.0089 0.221246 0.615076 0.615067C0.221249 1.00889 0 1.54302 0 2.09997V9.09987C0 9.65682 0.221249 10.191 0.615076 10.5848C1.0089 10.9786 1.54305 11.1998 2.1 11.1998H10.213L12.803 13.7968C12.8684 13.8617 12.946 13.913 13.0313 13.9478C13.1166 13.9827 13.2079 14.0003 13.3 13.9998C13.3918 14.0022 13.4829 13.983 13.566 13.9438C13.6938 13.8913 13.8033 13.8021 13.8805 13.6875C13.9577 13.5729 13.9993 13.438 14 13.2998V2.09997C14 1.54302 13.7788 1.00889 13.3849 0.615067C12.9911 0.221246 12.457 0 11.9 0ZM12.6 11.6128L10.997 10.0029C10.9316 9.93799 10.854 9.88666 10.7687 9.85182C10.6834 9.81699 10.5921 9.79933 10.5 9.79986H2.1C1.91435 9.79986 1.7363 9.72612 1.60503 9.59484C1.47375 9.46357 1.4 9.28552 1.4 9.09987V2.09997C1.4 1.91432 1.47375 1.73628 1.60503 1.605C1.7363 1.47373 1.91435 1.39998 2.1 1.39998H11.9C12.0857 1.39998 12.2637 1.47373 12.395 1.605C12.5263 1.73628 12.6 1.91432 12.6 2.09997V11.6128Z" fill="black"/>
</svg>
