<svg width="15" height="15" viewBox="0 0 15 15" fill="none" xmlns="http://www.w3.org/2000/svg">
<path d="M3.75 0C4.20822 4.87563e-08 4.58283 0.374823 4.58301 0.833008C4.58301 1.87467 4.75026 2.87526 5.05859 3.80859C5.15012 4.10018 5.08286 4.42495 4.84961 4.6582L3.0166 6.49121C4.2166 8.84954 6.15046 10.7751 8.50879 11.9834L10.3418 10.1504C10.5085 9.99206 10.7169 9.9082 10.9336 9.9082C11.0168 9.90822 11.1082 9.91695 11.1914 9.9502C12.1247 10.2585 13.1337 10.4248 14.167 10.4248C14.6252 10.425 15 10.8006 15 11.2588V14.167C14.9998 14.6251 14.6251 14.9998 14.167 15C6.34199 15 0 8.65801 0 0.833008C0.000177453 0.374931 0.374931 0.000177453 0.833008 0H3.75ZM10.167 12.6748C11.1752 13.0081 12.2332 13.2248 13.333 13.2998V12.0586C12.5999 12.0086 11.8751 11.8835 11.167 11.6836L10.167 12.6748ZM1.69141 1.66699C1.76643 2.76688 1.98356 3.82529 2.3252 4.8252L3.3252 3.8252C3.12523 3.13363 3.00021 2.40854 2.9502 1.66699H1.69141Z" fill="black"/>
</svg>
