<svg xmlns="http://www.w3.org/2000/svg" width="20" height="20" viewBox="0 0 20 20" fill="none">
        <path d="M6.25 2.5C6.70822 2.5 7.08283 2.87482 7.08301 3.33301C7.08301 4.37467 7.25026 5.37526 7.55859 6.30859C7.65012 6.60018 7.58286 6.92495 7.34961 7.1582L5.5166 8.99121C6.7166 11.3495 8.65046 13.2751 11.0088 14.4834L12.8418 12.6504C13.0085 12.4921 13.2169 12.4082 13.4336 12.4082C13.5168 12.4082 13.6082 12.4169 13.6914 12.4502C14.6247 12.7585 15.6337 12.9248 16.667 12.9248C17.1252 12.925 17.5 13.3006 17.5 13.7588V16.667C17.4998 17.1251 17.1251 17.4998 16.667 17.5C8.84199 17.5 2.5 11.158 2.5 3.33301C2.50018 2.87493 2.87493 2.50018 3.33301 2.5H6.25ZM12.667 15.1748C13.6752 15.5081 14.7332 15.7248 15.833 15.7998V14.5586C15.0999 14.5086 14.3751 14.3835 13.667 14.1836L12.667 15.1748ZM4.19141 4.16699C4.26643 5.26688 4.48356 6.32529 4.8252 7.3252L5.8252 6.3252C5.62523 5.63363 5.50021 4.90854 5.4502 4.16699H4.19141Z" fill="black"/>
</svg>
