<svg xmlns="http://www.w3.org/2000/svg" width="18" height="18" viewBox="0 0 18 18" fill="none">
    <path fill-rule="evenodd" clip-rule="evenodd" d="M9 2.625C5.48475 2.625 2.625 5.48475 2.625 9C2.625 12.5153 5.48475 15.375 9 15.375C12.5153 15.375 15.375 12.5153 15.375 9C15.375 5.48475 12.5153 2.625 9 2.625ZM9 16.5C4.8645 16.5 1.5 13.1355 1.5 9C1.5 4.8645 4.8645 1.5 9 1.5C13.1355 1.5 16.5 4.8645 16.5 9C16.5 13.1355 13.1355 16.5 9 16.5Z" fill="black"/>
    <path fill-rule="evenodd" clip-rule="evenodd" d="M11.5697 11.769C11.4714 11.769 11.3724 11.7435 11.2817 11.6903L8.45419 10.0035C8.28469 9.90154 8.17969 9.71779 8.17969 9.51979V5.88379C8.17969 5.57329 8.43169 5.32129 8.74219 5.32129C9.05344 5.32129 9.30469 5.57329 9.30469 5.88379V9.20029L11.8584 10.7228C12.1247 10.8825 12.2124 11.2275 12.0534 11.4945C11.9477 11.6708 11.7609 11.769 11.5697 11.769Z" fill="black"/>
</svg>
