<svg width="786" height="1011" viewBox="0 0 786 1011" fill="none" xmlns="http://www.w3.org/2000/svg">
<path fill-rule="evenodd" clip-rule="evenodd" d="M590.381 608.999C574.215 630.913 515.484 703.522 443.566 710.891C439.358 711.286 435.178 711.508 431.144 711.508C297.525 711.508 287.135 492.409 287.135 425.24V292.329L293.249 297.962C334.509 336.003 342.49 374.728 341.813 421.15C343.361 451.32 364.905 464.92 385.579 464.92C406.582 464.92 429.384 451.041 429.761 420.562C430.399 372.558 433.998 340.353 478.596 298.01L484.729 292.166V562.259C484.729 587.182 504.291 606.723 529.24 606.723C554.616 606.723 573.722 587.587 573.722 562.259V224.833C573.722 203.228 557.489 184.4 535.973 181.063C532.771 180.513 529.463 180.233 526.096 180.233C477.841 180.233 416.507 234.883 389.168 269.345L386.305 272.952L383.441 269.326C356.421 234.922 295.28 180.301 246.252 180.301C239.954 180.301 233.975 181.237 228.509 183.088C211.067 188.933 198.887 206.111 198.887 224.833V429.995C198.887 442.013 199.245 454.802 199.855 466.029C207.855 611.999 252.83 788.419 421.557 799.858C425.727 800.128 429.829 800.263 433.843 800.263C467.122 800.263 497.654 790.56 527.209 770.585L539.35 762.367L532.462 775.291C504.146 828.32 449.796 917.856 404.124 921.522C402.615 921.734 400.864 921.85 399.113 921.85C327.118 921.869 210.312 724.645 178.059 649.692C137.688 556.028 105.512 448.919 96.1187 376.879L94.5998 365.787C83.9776 288.886 76.306 233.32 148.543 190.438C152.18 188.278 171.761 176.867 179.142 173.106C248.941 137.39 422.496 87.5532 546.634 87.5532C621.271 87.5532 666.13 105.107 679.935 139.695C730.385 247.017 658.835 525.26 590.381 608.999ZM709.395 39.7573C672.952 13.3778 617.2 0 543.677 0C391.396 0 201.502 57.7456 105.902 113.572C0.550412 174.52 -10.333 260.815 6.29686 380.309C17.0158 454.499 47.0928 574.967 99.3622 690.516C114.164 723.271 248.48 1010.57 400.76 1010.57H400.78C403.169 1010.57 405.549 1010.48 407.958 1010.36C493.758 1004.8 578.823 905.044 660.782 713.906C692.949 639.387 719.64 567.675 740.13 500.738C776.679 380.328 810.19 214.537 762.177 108.286C749.446 79.8812 736.705 59.5396 709.395 39.7573Z" fill="#E7E7E7"/>
</svg>
