<svg width="21" height="21" viewBox="0 0 21 21" fill="none" xmlns="http://www.w3.org/2000/svg">
<g opacity="0.3" clip-path="url(#clip0_574_1962)">
<path d="M20.3438 9.18631H16.0086C16.5231 8.76631 17.0284 8.23343 17.4956 7.52075C17.5074 7.50106 17.5193 7.48268 17.5298 7.46168C18.9026 4.8065 17.8671 0.665558 17.8224 0.490995C17.7634 0.259995 17.5822 0.0828078 17.3526 0.0224328C17.1229 -0.0379422 16.8748 0.0329328 16.7094 0.20487C16.6989 0.21537 15.624 1.30081 12.0396 2.67631C10.7743 3.16062 9.85425 4.07937 9.44869 5.26193C9.38175 5.45618 9.32794 5.68325 9.28725 5.92737C8.93156 5.42075 8.42625 5.01781 7.791 4.775C5.41275 3.86412 4.69088 3.1475 4.69088 3.1475C4.52812 2.969 4.28269 2.89287 4.04775 2.95587C3.81413 3.01362 3.63169 3.19606 3.57262 3.42837C3.54112 3.55043 2.81662 6.44712 3.78787 8.32662C3.79837 8.34762 3.81019 8.366 3.822 8.38568C4.02675 8.69806 4.24594 8.95399 4.47038 9.18631H0.65625C0.294 9.18631 0 9.48031 0 9.84256C0 13.8614 2.61844 17.4721 6.5625 18.9684V20.3426C6.5625 20.7048 6.8565 20.9988 7.21875 20.9988H13.7812C14.1435 20.9988 14.4375 20.7048 14.4375 20.3426V18.9684C18.3816 17.4721 21 13.8601 21 9.84256C21 9.48031 20.706 9.18631 20.3438 9.18631ZM10.6903 5.6885C10.9673 4.87999 11.6143 4.24475 12.5094 3.90218C14.6672 3.07531 15.9836 2.34162 16.7488 1.82975C16.9522 3.10812 17.1413 5.32231 16.3787 6.83168C15.1108 8.74268 13.5739 9.17056 12.4766 9.18631H12.3139C12.3007 9.18631 12.2889 9.18499 12.2771 9.18499C12.9281 8.53137 13.7445 7.53912 14.3771 6.18331C14.5307 5.85387 14.3889 5.46406 14.0595 5.3105C13.7327 5.15562 13.3403 5.29868 13.1867 5.62681C12.5252 7.04562 11.6182 8.02474 11.0329 8.55762C10.5407 7.50106 10.4055 6.51668 10.6903 5.6885ZM9.67444 8.75056C9.7335 8.89493 9.78731 9.03668 9.85819 9.18631H9.52087C9.58125 9.03668 9.63375 8.891 9.67444 8.75056ZM4.66725 4.74087C5.22375 5.08212 6.07163 5.52049 7.32113 5.99956C7.87238 6.21087 8.26875 6.59806 8.43806 7.08893C8.58769 7.52731 8.55488 8.04049 8.3475 8.597C7.89994 8.14943 7.38412 7.55225 7.17806 6.99181C7.05469 6.65056 6.68062 6.47862 6.33675 6.60068C5.9955 6.72668 5.82225 7.10337 5.94694 7.44331C6.17925 8.07856 6.64388 8.68887 7.08619 9.17843C6.43519 9.08787 5.63325 8.73612 4.93894 7.69531C4.53075 6.875 4.55438 5.65306 4.66725 4.74087ZM13.5752 17.8816C13.3074 17.9696 13.125 18.2216 13.125 18.5051V19.6863H7.875V18.5051C7.875 18.2216 7.69256 17.9709 7.42481 17.8816C3.99262 16.7489 1.617 13.8326 1.34006 10.4988H7.17413C7.27913 10.5067 7.38544 10.5159 7.4865 10.5159C7.55212 10.5159 7.60594 10.5027 7.66894 10.4988H19.6612C19.383 13.8326 17.0074 16.7489 13.5752 17.8816Z" fill="black"/>
</g>
<defs>
<clipPath id="clip0_574_1962">
<rect width="21" height="21" fill="white"/>
</clipPath>
</defs>
</svg>
