<svg width="169" height="49" viewBox="0 0 169 49" fill="none" xmlns="http://www.w3.org/2000/svg">
  <g clip-path="url(#clip0_2137_1132)">
    <path d="M0 13.9205C0.184169 11.9201 0.420464 10.9123 0.973073 9.76963C1.96345 7.7218 3.49957 6.3166 6.30441 4.89271C10.5169 2.75417 16.6761 0.953425 22.0021 0.303213C22.8233 0.202935 24.1646 0.0835733 25.1028 0.0271322C25.253 0.0180713 25.4033 0.00906095 25.5536 0C26.1475 0 26.7413 0 27.3352 0C27.7889 0.0379649 28.2184 0.073095 28.5824 0.102606C31.6469 0.350897 33.8932 1.20293 35.3799 2.68108C36.7256 4.01891 37.7076 6.31761 38.0494 8.92979C38.6224 13.3086 37.6902 19.2721 35.3309 26.3223C33.6861 31.2373 31.338 36.7633 29.4633 40.1311C26.5098 45.437 23.5841 48.3166 20.5269 48.9264C20.4038 48.9509 20.2809 48.9754 20.1578 49C19.7166 49 19.2755 49 18.8343 49C17.6288 48.7744 17.1035 48.6019 16.1952 48.1331C13.8089 46.9016 11.4111 44.4806 8.93206 40.7996C6.15883 36.6817 3.93078 32.0007 2.34238 26.9551C1.01247 22.7305 0.301655 19.2743 0.0278952 15.7016C0.0185798 15.5803 0.00931536 15.459 0 15.3378C0 14.8654 0 14.3929 0 13.9205ZM33.8678 10.3518C33.7324 8.72782 33.4763 7.62649 33.0064 6.64699C32.3528 5.28466 30.8122 4.54242 28.1302 4.29778C26.8511 4.1811 24.3754 4.28522 22.4994 4.53452C17.9096 5.14449 11.9151 6.8029 8.93791 8.28637C6.26903 9.6162 5.09062 10.6864 4.55806 12.264C4.15613 13.4546 4.17369 14.822 4.63197 18.0207C5.00367 20.615 5.5711 22.9569 6.55124 25.9427C7.69296 29.4206 8.85433 32.1749 10.1691 34.5227C12.108 37.9851 14.1973 40.9089 16.0301 42.7251C16.8803 43.5676 17.4905 44.0409 18.1501 44.3691C19.0678 44.8258 19.7255 44.8398 20.5464 44.4197C21.088 44.1426 21.4976 43.815 22.1531 43.1347C22.9662 42.2909 23.8401 41.1056 24.7879 39.5613C25.2759 38.7661 26.2276 37.0251 26.166 37.0404C26.1394 37.0469 25.8996 37.1984 25.633 37.3769C23.9896 38.4772 22.2382 38.9401 20.336 38.7767C17.8286 38.5613 15.8552 37.6554 14.1985 35.9594C11.5498 33.2478 10.0375 28.6649 9.72381 22.3993C9.65265 20.9783 9.6554 10.8892 9.72702 10.5003C9.84079 9.88266 10.2839 9.29071 10.8424 9.01038C12.3582 8.24946 14.8673 9.27968 17.3764 11.6932C17.7092 12.0134 18.1541 12.4803 18.3649 12.7309C18.5757 12.9815 18.7638 13.1928 18.7827 13.2005C18.8017 13.2082 18.9294 13.0715 19.0667 12.8968C19.2039 12.722 19.6258 12.2704 20.0043 11.8932C23.3133 8.59484 26.5777 7.79849 27.6823 10.0201C27.7448 10.1458 27.8073 10.2714 27.8697 10.3971C27.8742 13.2402 27.8787 16.0834 27.8832 18.9265C27.8917 24.3309 27.8784 27.554 27.8468 27.7238C27.728 28.3633 27.2932 28.9229 26.6866 29.2172C26.3586 29.3763 26.3154 29.384 25.7572 29.3844C25.2062 29.3848 25.1521 29.3755 24.8347 29.226C24.4354 29.0378 24.1445 28.7891 23.9236 28.4466C23.5714 27.9008 23.5965 28.4314 23.5684 20.9566C23.5599 18.704 23.5514 16.4514 23.5429 14.1989C23.3684 14.3742 23.1938 14.5495 23.0192 14.7248C22.114 15.6339 21.5931 16.4182 21.2828 17.3393C21.0629 17.9921 20.9778 18.5594 20.9007 19.885C20.8353 21.0105 20.8278 21.0607 20.6775 21.3802C20.4795 21.8009 20.1679 22.1104 19.7225 22.3285C19.382 22.4952 19.3522 22.5005 18.7592 22.5005C18.2018 22.5005 18.1212 22.4884 17.8561 22.3649C17.2923 22.1021 16.8329 21.5295 16.7059 20.9313C16.6764 20.7921 16.6401 20.3023 16.6252 19.843C16.5535 17.6241 15.9939 16.2342 14.593 14.7962C14.2865 14.4816 14.0138 14.2242 13.987 14.2242C13.9562 14.2242 13.9471 15.7821 13.9622 18.4636C13.9873 22.9202 14.0021 23.2571 14.2549 25.1559C14.5707 27.5277 15.209 29.7383 15.995 31.1818C16.498 32.1056 17.2441 33.0138 17.9181 33.5229C18.3614 33.8577 19.169 34.2427 19.6997 34.3723C20.3131 34.5221 21.2714 34.5576 21.8745 34.4529C23.5911 34.1548 25.2011 33.2368 26.8953 31.5901C28.456 30.0731 29.4766 28.6673 30.359 26.8187C32.1516 23.0633 33.5342 17.673 33.849 13.2118C33.8967 12.5369 33.9078 10.8318 33.8678 10.3518Z" fill="#E6030F"/>
    <path d="M117.39 16.6861C117.66 14.5933 118.96 12.7614 120.856 11.8015C121.799 11.3243 122.709 11.1194 123.873 11.1221C125.297 11.1254 126.405 11.466 127.57 12.2574C128.089 12.6101 128.87 13.3947 129.208 13.9037C129.579 14.4609 129.946 15.2718 130.125 15.9307C130.179 16.1296 130.233 16.3285 130.287 16.5274C130.292 18.569 130.297 20.6107 130.302 22.6524C130.318 29.3277 130.321 29.2527 130.03 30.1688C129.316 32.417 127.508 34.0347 125.158 34.5296C124.492 34.6698 123.335 34.6836 122.652 34.5595C120.308 34.134 118.417 32.5058 117.669 30.2707C117.329 29.2532 117.332 29.3183 117.339 22.8484C117.342 19.6503 117.365 16.8772 117.39 16.6861ZM126.669 16.8564C126.325 15.5519 125.156 14.6328 123.838 14.6299C122.73 14.6275 121.695 15.268 121.203 16.2603C120.826 17.0213 120.84 16.7434 120.856 23.0738C120.861 24.9581 120.865 26.8424 120.87 28.7268C120.916 28.8529 120.963 28.979 121.009 29.1051C121.777 31.1995 124.336 31.8114 125.885 30.2712C126.086 30.0706 126.289 29.8029 126.402 29.5873C126.769 28.8892 126.75 29.2552 126.746 22.8729C126.743 18.0405 126.731 17.0909 126.669 16.8564Z" fill="#000000"/>
    <path d="M45.9853 12.7502C46.2276 12.0762 46.8307 11.6459 47.5938 11.6029C48.9063 11.5288 50.8453 12.3307 52.4334 13.6043C53.2029 14.2213 54.237 15.4095 54.7803 16.3007C54.8423 16.4025 54.9044 16.5043 54.9664 16.6061C55.0752 16.4411 55.184 16.2761 55.2928 16.1112C56.4052 14.4244 57.9027 13.0896 59.5661 12.3024C60.5616 11.8312 61.6096 11.567 62.3393 11.6033C63.0867 11.6404 63.695 12.0541 63.9332 12.6874C64.0361 12.9606 64.0367 13.0308 64.0367 23.1284C64.0367 26.517 64.0367 29.9056 64.0367 33.2942C63.9768 33.4133 63.9169 33.5324 63.857 33.6515C63.6526 34.0578 63.4275 34.2774 63.021 34.467C62.7784 34.5801 62.6706 34.5986 62.2551 34.5979C61.8031 34.5972 61.7507 34.5859 61.4525 34.4258C61.0857 34.2289 60.8427 33.982 60.6407 33.6007C60.5935 33.5115 60.5462 33.4223 60.4989 33.3332C60.4945 30.4352 60.4901 27.5372 60.4856 24.6392C60.4775 19.3413 60.4539 15.9452 60.4251 15.9452C60.3162 15.9452 59.5412 16.5815 59.1449 16.9963C58.3836 17.7932 57.8366 18.7452 57.4449 19.9547C57.0506 21.1723 56.8775 22.2664 56.8101 23.9685C56.7646 25.1158 56.7287 25.2897 56.4558 25.6843C56.2553 25.9739 56.0325 26.1572 55.6885 26.3153C55.2878 26.4995 54.664 26.4995 54.2632 26.3153C53.9193 26.1572 53.6964 25.9739 53.496 25.6843C53.2237 25.2907 53.1876 25.1157 53.1411 23.9642C53.072 22.252 52.8844 21.0957 52.4779 19.8758C52.0838 18.693 51.5324 17.7458 50.7902 16.977C50.4076 16.5806 49.6267 15.9452 49.5222 15.9452C49.4989 15.9452 49.4737 19.8575 49.4663 24.6392C49.4618 27.5372 49.4573 30.4352 49.4528 33.3332C49.3952 33.4389 49.3375 33.5447 49.2798 33.6504C49.0728 34.0301 48.8027 34.2847 48.4154 34.4653C48.1679 34.5807 48.0642 34.5984 47.6458 34.5968C47.2212 34.5952 47.1298 34.5782 46.8968 34.4577C46.4972 34.251 46.2933 34.046 46.0948 33.6515C46.0349 33.5324 45.975 33.4133 45.915 33.2942C45.9158 29.9007 45.9165 26.5073 45.9173 23.1138C45.9191 14.9224 45.9324 12.8976 45.9853 12.7502Z" fill="#000000"/>
    <path d="M169 33.156C168.797 33.8374 168.483 34.2303 167.931 34.4907C167.652 34.622 167.539 34.6468 167.218 34.6468C166.896 34.6468 166.783 34.6218 166.498 34.4885C166.083 34.2947 165.775 33.9974 165.597 33.6191C165.552 33.5238 165.507 33.4285 165.462 33.3332C165.453 31.8821 165.445 30.431 165.436 28.9799C165.428 27.5288 165.419 26.0777 165.411 24.6266C164.927 24.6219 164.444 24.6172 163.96 24.6125C162.009 24.5937 161.591 24.6655 160.891 25.1397C160.325 25.5236 159.95 26.0003 159.689 26.6706C159.645 26.7823 159.601 26.894 159.558 27.0057C159.549 28.0603 159.541 29.1149 159.532 30.1694C159.523 31.224 159.515 32.2786 159.506 33.3332C159.457 33.4335 159.407 33.5338 159.358 33.6342C159.167 34.0192 158.867 34.3167 158.485 34.498C158.233 34.6175 158.115 34.6418 157.775 34.6437C157.433 34.6455 157.317 34.6229 157.051 34.5018C156.7 34.3426 156.356 34.0148 156.164 33.6567C156.124 33.5826 156.084 33.5085 156.045 33.4344C156.04 32.3629 156.035 31.2915 156.029 30.2201C156.016 27.4549 156.026 26.9368 156.096 26.5127C156.293 25.3255 156.84 24.2507 157.777 23.2092C157.883 23.0911 157.989 22.973 158.096 22.8549C157.99 22.7512 157.884 22.6476 157.778 22.5439C157.313 22.0881 156.97 21.6102 156.656 20.9819C156.15 19.9682 155.991 19.1832 156.032 17.9025C156.055 17.2086 156.082 16.9935 156.214 16.4875C156.847 14.0592 158.775 12.2792 161.288 11.805C161.687 11.7296 162.127 11.7185 164.698 11.7185C165.682 11.7185 166.667 11.7185 167.651 11.7185C167.752 11.7658 167.854 11.8131 167.956 11.8603C168.124 11.9383 168.35 12.0864 168.458 12.1894C168.632 12.3544 168.891 12.7974 168.972 13.0674C168.981 13.0987 168.99 13.1299 169 13.1612C169 19.8261 169 26.491 169 33.156ZM163.752 15.2366C161.889 15.2366 161.707 15.2589 161.135 15.5554C160.731 15.7652 160.062 16.4305 159.849 16.8358C159.425 17.6412 159.425 18.6243 159.847 19.4887C160.079 19.9613 160.706 20.5742 161.211 20.8218C161.838 21.1286 162.115 21.1625 163.871 21.1472C164.385 21.1428 164.898 21.1383 165.411 21.1338C165.415 20.1509 165.42 19.1681 165.424 18.1852C165.428 17.2023 165.433 16.2195 165.437 15.2366C164.875 15.2366 164.313 15.2366 163.752 15.2366Z" fill="#000000"/>
    <path d="M72.005 17.1095C72.4291 14.4422 74.3528 12.4193 77.0204 11.8358C77.5408 11.722 77.6121 11.7196 80.5559 11.7191C81.5573 11.7189 82.5588 11.7187 83.5602 11.7185C83.6736 11.774 83.7872 11.8296 83.9006 11.8851C84.2708 12.0663 84.5235 12.3193 84.7134 12.6987C84.7525 12.7769 84.7916 12.8552 84.8308 12.9334C84.8352 16.3196 84.8396 19.7059 84.844 23.0921C84.8573 33.2469 84.8572 33.2509 84.7522 33.53C84.6058 33.919 84.2636 34.2801 83.8487 34.4832C83.548 34.6304 83.463 34.649 83.1011 34.6463C82.7737 34.6439 82.6357 34.6172 82.404 34.5116C82.002 34.3284 81.6809 34.0169 81.4839 33.6189C81.4287 33.5076 81.3736 33.3961 81.3184 33.2848C81.3136 31.8361 81.3087 30.3875 81.3038 28.9389C81.2989 27.4902 81.2941 26.0415 81.2892 24.5929C80.7342 24.6001 80.1791 24.6074 79.624 24.6146C77.8036 24.6384 77.7068 24.6516 77.0733 24.9617C76.6903 25.1492 76.043 25.756 75.8232 26.1336C75.7459 26.2664 75.6221 26.5398 75.5481 26.7411C75.5033 26.863 75.4585 26.985 75.4136 27.1069C75.4051 28.1615 75.3967 29.2161 75.3882 30.2707C75.3797 31.3252 75.3712 32.3799 75.3627 33.4344C75.3155 33.5236 75.2682 33.6127 75.221 33.7019C75.0384 34.0466 74.7403 34.3319 74.3782 34.5084C74.1363 34.6263 74.0247 34.6488 73.6818 34.649C73.3229 34.6492 73.2325 34.6292 72.9337 34.4829C72.5578 34.2989 72.2621 34.0038 72.0715 33.6225C72.0317 33.5429 71.9919 33.4634 71.9522 33.3838C71.9472 32.3292 71.9423 31.2746 71.9374 30.2201C71.9213 26.7704 71.9359 26.5266 72.2113 25.6589C72.4835 24.8009 73.0406 23.8877 73.6965 23.2241C73.8084 23.111 73.9203 22.9977 74.0321 22.8846C73.8929 22.7404 73.7538 22.5963 73.6146 22.4521C72.4897 21.287 71.9188 19.8264 71.9319 18.1472C71.9345 17.8131 71.9674 17.3462 72.005 17.1095ZM79.6259 15.2372C78.3748 15.2376 77.8932 15.2552 77.6961 15.3074C76.3513 15.6634 75.4207 16.8352 75.4207 18.1725C75.4207 19.4621 76.3079 20.6133 77.6279 21.0367C77.8666 21.1132 78.1574 21.1294 79.6004 21.1469C80.1646 21.1537 80.7288 21.1606 81.293 21.1674C81.293 20.179 81.293 19.1904 81.293 18.202C81.293 17.2135 81.293 16.225 81.293 15.2366C80.7373 15.2368 80.1816 15.237 79.6259 15.2372Z" fill="#000000"/>
    <path d="M133.318 12.8321C133.486 12.4024 133.76 12.0947 134.153 11.8956C134.269 11.8365 134.386 11.7775 134.502 11.7185C135.386 11.7131 136.27 11.7077 137.154 11.7024C139.82 11.6862 140.56 11.7168 141.226 11.8711C142.359 12.1333 143.502 12.7615 144.311 13.5661C145.198 14.4479 145.871 15.7426 146.1 17.0082C146.202 17.5707 146.188 18.9044 146.075 19.438C145.787 20.8027 145.159 21.9483 144.202 22.854C143.344 23.6663 142.341 24.1979 141.129 24.4826C140.844 24.5496 140.374 24.5722 138.763 24.5963C138.093 24.6064 137.423 24.6164 136.752 24.6265C136.744 26.0776 136.735 27.5287 136.727 28.9798C136.718 30.4309 136.71 31.882 136.701 33.3331C136.656 33.4292 136.611 33.5253 136.565 33.6214C136.393 33.9875 136.066 34.3134 135.685 34.4985C135.434 34.6209 135.324 34.6437 134.976 34.6451C134.634 34.6465 134.513 34.6237 134.271 34.5119C133.917 34.3481 133.534 33.9784 133.365 33.6368C133.323 33.5525 133.282 33.4681 133.24 33.3837C133.237 30.0007 133.233 26.6175 133.23 23.2345C133.22 13.2911 133.221 13.0801 133.318 12.8321ZM142.558 17.5102C142.278 16.4199 141.463 15.5885 140.406 15.3162C140.155 15.2515 139.78 15.2365 138.412 15.2365C137.85 15.2365 137.288 15.2365 136.726 15.2365C136.73 16.2194 136.735 17.2023 136.739 18.1851C136.744 19.168 136.748 20.1509 136.752 21.1337C137.321 21.1336 137.889 21.1334 138.458 21.1333C139.026 21.1331 139.594 21.133 140.163 21.1328C140.296 21.0863 140.428 21.0397 140.561 20.9931C141.498 20.6647 142.174 19.9912 142.478 19.0836C142.62 18.6585 142.658 17.9034 142.558 17.5102Z" fill="#000000"/>
    <path d="M87.9939 16.5022C88.351 14.2093 89.9774 12.2525 92.1747 11.472C93.4673 11.0129 95.1056 10.9944 96.4371 11.424C98.5444 12.1038 100.123 13.7971 100.669 15.9641C100.765 16.3465 100.805 16.6657 100.826 17.2194C100.835 17.4669 100.844 17.7143 100.854 17.9618C100.802 18.0712 100.751 18.1806 100.699 18.29C100.182 19.3904 98.8263 19.6906 97.9428 18.9007C97.5544 18.5535 97.3848 18.1678 97.332 17.5118C97.2576 16.5881 96.9898 16.0111 96.3624 15.4225C95.2367 14.3664 93.5568 14.3605 92.406 15.4085C91.9839 15.7928 91.7176 16.1967 91.5371 16.7261C91.4906 16.8624 91.4441 16.9987 91.3977 17.135C91.3977 19.0332 91.3977 20.9315 91.3977 22.8297C91.3977 29.0836 91.3819 28.7552 91.7154 29.4609C91.9493 29.9558 92.5607 30.5736 93.0538 30.8134C94.6931 31.6105 96.5809 30.839 97.1771 29.1285C97.2347 28.9633 97.3039 28.5776 97.3308 28.2714C97.3707 27.8164 97.4078 27.6572 97.5338 27.4008C97.8309 26.7964 98.3892 26.4656 99.1095 26.4672C99.8959 26.4689 100.472 26.8574 100.755 27.5763C100.817 27.7328 100.84 27.9494 100.84 28.361C100.839 31.3698 98.6445 33.9682 95.6079 34.5555C94.9977 34.6735 93.79 34.6733 93.1857 34.555C91.2545 34.1772 89.6841 33.0776 88.7644 31.4592C88.4778 30.9549 88.2192 30.3048 88.076 29.7289C88.0307 29.5467 87.9854 29.3646 87.9402 29.1825C87.9367 27.1493 87.9331 25.1161 87.9296 23.0828C87.9206 17.927 87.9306 16.9087 87.9939 16.5022Z" fill="#000000"/>
    <path d="M101.608 13.0466C101.727 12.541 102.104 12.0847 102.583 11.8646C102.689 11.8159 102.795 11.7673 102.901 11.7186C104.851 11.714 106.8 11.7094 108.75 11.7049C115.101 11.69 114.939 11.6837 115.388 11.9657C115.681 12.1495 115.992 12.528 116.114 12.8501C116.202 13.0813 116.218 13.2133 116.2 13.5409C116.162 14.23 115.824 14.7423 115.206 15.045C115.092 15.1005 114.979 15.1559 114.866 15.2114C114.175 15.2168 113.483 15.2222 112.791 15.2276C112.1 15.233 111.408 15.2384 110.717 15.2438C110.712 18.2502 110.708 21.2567 110.703 24.2632C110.699 27.2697 110.694 30.2762 110.689 33.2826C110.644 33.3784 110.599 33.4741 110.554 33.5699C110.282 34.147 109.711 34.5771 109.118 34.6507C108.547 34.7218 107.838 34.4083 107.484 33.9277C107.126 33.4403 107.152 34.2022 107.152 24.241C107.152 21.2416 107.152 18.2422 107.152 15.2428C106.452 15.2376 105.752 15.2323 105.052 15.2271C104.352 15.2218 103.652 15.2166 102.952 15.2114C102.842 15.1584 102.732 15.1055 102.621 15.0525C102.076 14.7909 101.771 14.4346 101.631 13.8973C101.545 13.5668 101.539 13.3383 101.608 13.0466Z" fill="#000000"/>
    <path d="M149.049 12.5099C149.273 11.3854 150.518 10.7842 151.572 11.2915C151.87 11.435 152.171 11.748 152.34 12.0899C152.387 12.1855 152.434 12.2811 152.481 12.3766C152.481 15.8694 152.481 19.3622 152.481 22.8549C152.481 26.3477 152.481 29.8405 152.481 33.3332C152.437 33.428 152.392 33.5229 152.347 33.6177C152.164 34.0062 151.894 34.2879 151.534 34.4668C151.137 34.6644 150.779 34.7072 150.378 34.605C149.819 34.4627 149.437 34.1459 149.179 33.6116C149.126 33.5019 149.073 33.3923 149.02 33.2826C149.017 29.8573 149.015 26.4321 149.012 23.0068C149.008 17.3551 149.025 12.6315 149.049 12.5099Z" fill="#000000"/>
    <path d="M66.5267 12.3513C66.6743 11.8781 67.0165 11.497 67.4965 11.2712C67.7793 11.1382 67.8843 11.1162 68.2346 11.1165C68.5659 11.1167 68.6974 11.1415 68.9306 11.248C69.2951 11.4143 69.6084 11.7249 69.7809 12.0907C69.8258 12.186 69.8707 12.2813 69.9157 12.3766C69.9157 13.3215 69.9157 14.2664 69.9157 15.2113C69.9157 16.1562 69.9157 17.1011 69.9157 18.046C69.868 18.1472 69.8204 18.2485 69.7728 18.3497C69.5885 18.7414 69.2138 19.0945 68.8308 19.2375C68.4371 19.3844 67.8401 19.361 67.4723 19.184C67.1478 19.028 66.7904 18.6739 66.6302 18.3497C66.5885 18.2653 66.5468 18.181 66.5051 18.0966C66.5021 17.1602 66.4991 16.2237 66.4961 15.2872C66.4912 13.7421 66.5049 12.4209 66.5267 12.3513Z" fill="#000000"/>
  </g>
  <defs>
    <clipPath id="clip0_2137_1132">
      <rect width="169" height="49" fill="#000000"/>
    </clipPath>
  </defs>
</svg>
