<svg xmlns="http://www.w3.org/2000/svg" viewBox="0 0 114 33" fill="none">
  <!-- Shield icon -->
  <g>
    <path d="M16.5 2C12.5 2 9.5 4.2 8.2 7.2C7.5 8.8 7.2 10.6 7.5 12.4C7.9 14.8 9.2 16.9 11.2 18.2L13.2 28.5C13.3 29.1 13.8 29.5 14.4 29.5H18.6C19.2 29.5 19.7 29.1 19.8 28.5L21.8 18.2C23.8 16.9 25.1 14.8 25.5 12.4C25.8 10.6 25.5 8.8 24.8 7.2C23.5 4.2 20.5 2 16.5 2Z" fill="#8B010F"/>
    <path d="M16.5 5C14 5 12 6.5 11.2 8.5C10.8 9.5 10.7 10.6 10.9 11.7C11.2 13.2 12 14.5 13.3 15.3L12.8 17.5L14 17.5L14.5 15.5C15.1 15.7 15.8 15.8 16.5 15.8C17.2 15.8 17.9 15.7 18.5 15.5L19 17.5L20.2 17.5L19.7 15.3C21 14.5 21.8 13.2 22.1 11.7C22.3 10.6 22.2 9.5 21.8 8.5C21 6.5 19 5 16.5 5Z" fill="#E6000F"/>
  </g>
  <!-- М'ЯСТОРІЯ text -->
  <text x="36" y="22" font-family="'Montserrat', 'Inter', sans-serif" font-size="14" font-weight="800" fill="white" letter-spacing="0.5">М'ЯСТОРІЯ</text>
</svg>
