<svg width="400" height="400" viewBox="0 0 400 400" fill="none" xmlns="http://www.w3.org/2000/svg">
  <rect width="400" height="400" fill="#000000"/>
  <g transform="translate(162, 151) scale(2)">
    <path d="M0 13.9205C0.184169 11.9201 0.420464 10.9123 0.973073 9.76963C1.96345 7.7218 3.49957 6.3166 6.30441 4.89271C10.5169 2.75417 16.6761 0.953425 22.0021 0.303213C22.8233 0.202935 24.1646 0.0835733 25.1028 0.0271322C25.253 0.0180713 25.4033 0.00906095 25.5536 0C26.1475 0 26.7413 0 27.3352 0C27.7889 0.0379649 28.2184 0.073095 28.5824 0.102606C31.6469 0.350897 33.8932 1.20293 35.3799 2.68108C36.7256 4.01891 37.7076 6.31761 38.0494 8.92979C38.6224 13.3086 37.6902 19.2721 35.3309 26.3223C33.6861 31.2373 31.338 36.7633 29.4633 40.1311C26.5098 45.437 23.5841 48.3166 20.5269 48.9264C20.4038 48.9509 20.2809 48.9754 20.1578 49C19.7166 49 19.2755 49 18.8343 49C17.6288 48.7744 17.1035 48.6019 16.1952 48.1331C13.8089 46.9016 11.4111 44.4806 8.93206 40.7996C6.15883 36.6817 3.93078 32.0007 2.34238 26.9551C1.01247 22.7305 0.301655 19.2743 0.0278952 15.7016C0.0185798 15.5803 0.00931536 15.459 0 15.3378C0 14.8654 0 14.3929 0 13.9205ZM33.8678 10.3518C33.7324 8.72782 33.4763 7.62649 33.0064 6.64699C32.3528 5.28466 30.8122 4.54242 28.1302 4.29778C26.8511 4.1811 24.3754 4.28522 22.4994 4.53452C17.9096 5.14449 11.9151 6.8029 8.93791 8.28637C6.26903 9.6162 5.09062 10.6864 4.55806 12.264C4.15613 13.4546 4.17369 14.822 4.63197 18.0207C5.00367 20.615 5.5711 22.9569 6.55124 25.9427C7.69296 29.4206 8.85433 32.1749 10.1691 34.5227C12.108 37.9851 14.1973 40.9089 16.0301 42.7251C16.8803 43.5676 17.4905 44.0409 18.1501 44.3691C19.0678 44.8258 19.7255 44.8398 20.5464 44.4197C21.088 44.1426 21.4976 43.815 22.1531 43.1347C22.9662 42.2909 23.8401 41.1056 24.7879 39.5613C25.2759 38.7661 26.2276 37.0251 26.166 37.0404C26.1394 37.0469 25.8996 37.1984 25.633 37.3769C23.9896 38.4772 22.2382 38.9401 20.336 38.7767C17.8286 38.5613 15.8552 37.6554 14.1985 35.9594C11.5498 33.2478 10.0375 28.6649 9.72381 22.3993C9.65265 20.9783 9.6554 10.8892 9.72702 10.5003C9.84079 9.88266 10.2839 9.29071 10.8424 9.01038C12.3582 8.24946 14.8673 9.27968 17.3764 11.6932C17.7092 12.0134 18.1541 12.4803 18.3649 12.7309C18.5757 12.9815 18.7638 13.1928 18.7827 13.2005C18.8017 13.2082 18.9294 13.0715 19.0667 12.8968C19.2039 12.722 19.6258 12.2704 20.0043 11.8932C23.3133 8.59484 26.5777 7.79849 27.6823 10.0201C27.7448 10.1458 27.8073 10.2714 27.8697 10.3971C27.8742 13.2402 27.8787 16.0834 27.8832 18.9265C27.8917 24.3309 27.8784 27.554 27.8468 27.7238C27.728 28.3633 27.2932 28.9229 26.6866 29.2172C26.3586 29.3763 26.3154 29.384 25.7572 29.3844C25.2062 29.3848 25.1521 29.3755 24.8347 29.226C24.4354 29.0378 24.1445 28.7891 23.9236 28.4466C23.5714 27.9008 23.5965 28.4314 23.5684 20.9566C23.5599 18.704 23.5514 16.4514 23.5429 14.1989C23.3684 14.3742 23.1938 14.5495 23.0192 14.7248C22.114 15.6339 21.5931 16.4182 21.2828 17.3393C21.0629 17.9921 20.9778 18.5594 20.9007 19.885C20.8353 21.0105 20.8278 21.0607 20.6775 21.3802C20.4795 21.8009 20.1679 22.1104 19.7225 22.3285C19.382 22.4952 19.3522 22.5005 18.7592 22.5005C18.2018 22.5005 18.1212 22.4884 17.8561 22.3649C17.2923 22.1021 16.8329 21.5295 16.7059 20.9313C16.6764 20.7921 16.6401 20.3023 16.6252 19.843C16.5535 17.6241 15.9939 16.2342 14.593 14.7962C14.2865 14.4816 14.0138 14.2242 13.987 14.2242C13.9562 14.2242 13.9471 15.7821 13.9622 18.4636C13.9873 22.9202 14.0021 23.2571 14.2549 25.1559C14.5707 27.5277 15.209 29.7383 15.995 31.1818C16.498 32.1056 17.2441 33.0138 17.9181 33.5229C18.3614 33.8577 19.169 34.2427 19.6997 34.3723C20.3131 34.5221 21.2714 34.5576 21.8745 34.4529C23.5911 34.1548 25.2011 33.2368 26.8953 31.5901C28.456 30.0731 29.4766 28.6673 30.359 26.8187C32.1516 23.0633 33.5342 17.673 33.849 13.2118C33.8967 12.5369 33.9078 10.8318 33.8678 10.3518Z" fill="#E6030F"/>
  </g>
</svg>
