<svg width="35" height="29" viewBox="0 0 35 29" fill="none" xmlns="http://www.w3.org/2000/svg">
<path d="M20.4596 28.2001C18.5396 28.2001 16.7996 26.7001 16.7996 24.6601C16.7996 23.7601 17.1596 22.8001 17.8196 22.0801L25.4996 14.1001L17.8196 6.1201C17.1596 5.4001 16.7996 4.5001 16.7996 3.5401C16.7996 1.5601 18.4796 9.71556e-05 20.3996 9.71556e-05C21.3596 9.71556e-05 22.3196 0.360096 23.0396 1.0801L33.1196 11.5801C33.7796 12.2401 34.1996 13.1401 34.1996 14.1001C34.1996 15.0001 33.7796 15.9601 33.1196 16.6201L23.0396 27.1201C22.3196 27.8401 21.3596 28.2001 20.4596 28.2001ZM3.59961 28.2001C1.67961 28.2001 -0.000390455 26.7001 -0.000390455 24.6601C-0.000390455 23.7601 0.299609 22.8001 0.959609 22.0801L8.69961 14.1001L0.959609 6.1201C0.299609 5.4001 -0.000390455 4.5001 -0.000390455 3.5401C-0.000390455 1.5601 1.61961 9.71556e-05 3.53961 9.71556e-05C4.49961 9.71556e-05 5.45961 0.360096 6.17961 1.0801L16.2596 11.5801C16.9196 12.2401 17.3996 13.1401 17.3996 14.1001C17.3996 15.0001 16.9196 15.9601 16.2596 16.6201L6.17961 27.1201C5.45961 27.8401 4.55961 28.2001 3.59961 28.2001Z" fill="#E6000F"/>
</svg>
