<svg xmlns="http://www.w3.org/2000/svg" width="20" height="20" viewBox="0 0 20 20" fill="none">
    <g opacity="0.3">
        <path d="M8.12988 2.7124C11.1214 2.71258 13.5459 5.13784 13.5459 8.12939C13.5458 9.47077 13.0547 10.7039 12.2383 11.6538L12.4717 11.8794H13.1299L17.2881 16.0454L16.0459 17.2876L11.8799 13.1294V12.4712L11.6543 12.2378C10.7044 13.0542 9.47126 13.5453 8.12988 13.5454C5.13833 13.5454 2.71307 11.1209 2.71289 8.12939C2.71289 5.13773 5.13822 2.7124 8.12988 2.7124ZM8.12988 4.37939C6.05488 4.37939 4.37988 6.05439 4.37988 8.12939C4.38006 10.2042 6.05499 11.8794 8.12988 11.8794C10.2046 11.8792 11.8797 10.2041 11.8799 8.12939C11.8799 6.0545 10.2047 4.37957 8.12988 4.37939Z" fill="black"/>
    </g>
</svg>
