<svg width="105" height="105" viewBox="0 0 105 105" fill="none" xmlns="http://www.w3.org/2000/svg">
<path d="M28.4583 10.9104C35.5063 6.8334 43.6891 4.5 52.4167 4.5C78.8801 4.5 100.333 25.953 100.333 52.4167C100.333 78.8801 78.8801 100.333 52.4167 100.333C25.953 100.333 4.5 78.8801 4.5 52.4167C4.5 43.6891 6.8334 35.5063 10.9104 28.4583" stroke="#F11C1C" stroke-width="9" stroke-linecap="round"/>
<path d="M56.3747 52.4977L73.6871 35.2108C74.2046 34.6933 74.4953 33.9914 74.4953 33.2595C74.4953 32.5277 74.2046 31.8258 73.6871 31.3083C73.1697 30.7907 72.4679 30.5 71.7361 30.5C71.0043 30.5 70.3024 30.7907 69.785 31.3083L52.5 48.6226L35.215 31.3083C34.6976 30.7907 33.9957 30.5 33.2639 30.5C32.5321 30.5 31.8303 30.7907 31.3129 31.3083C30.7954 31.8258 30.5047 32.5277 30.5047 33.2595C30.5047 33.9914 30.7954 34.6933 31.3129 35.2108L48.6253 52.4977L31.3129 69.7845C31.0553 70.04 30.8509 70.3439 30.7113 70.6788C30.5718 71.0137 30.5 71.373 30.5 71.7358C30.5 72.0986 30.5718 72.4578 30.7113 72.7927C30.8509 73.1276 31.0553 73.4316 31.3129 73.6871C31.5683 73.9446 31.8723 74.1491 32.2071 74.2886C32.542 74.4282 32.9012 74.5 33.2639 74.5C33.6267 74.5 33.9859 74.4282 34.3208 74.2886C34.6556 74.1491 34.9596 73.9446 35.215 73.6871L52.5 56.3728L69.785 73.6871C70.0404 73.9446 70.3444 74.1491 70.6792 74.2886C71.0141 74.4282 71.3733 74.5 71.7361 74.5C72.0988 74.5 72.458 74.4282 72.7929 74.2886C73.1277 74.1491 73.4317 73.9446 73.6871 73.6871C73.9447 73.4316 74.1491 73.1276 74.2887 72.7927C74.4282 72.4578 74.5 72.0986 74.5 71.7358C74.5 71.373 74.4282 71.0137 74.2887 70.6788C74.1491 70.3439 73.9447 70.04 73.6871 69.7845L56.3747 52.4977Z" fill="#F11C1C"/>
</svg>
