<svg width="27" height="36" viewBox="0 0 27 36" fill="none" xmlns="http://www.w3.org/2000/svg"><path fill-rule="evenodd" clip-rule="evenodd" d="M20.2803 21.126C19.725 21.8862 17.7075 24.4049 15.2371 24.6605C15.0925 24.6743 14.9489 24.682 14.8104 24.682C10.2204 24.682 9.86347 17.0815 9.86347 14.7514V10.1408L10.0735 10.3362C11.4908 11.6558 11.765 12.9992 11.7417 14.6096C11.7949 15.6562 12.535 16.1279 13.2451 16.1279C13.9666 16.1279 14.7499 15.6465 14.7628 14.5892C14.7848 12.9239 14.9084 11.8067 16.4404 10.3379L16.6511 10.1351V19.5046C16.6511 20.3691 17.323 21.047 18.1801 21.047C19.0517 21.047 19.7081 20.3832 19.7081 19.5046V7.79939C19.7081 7.04992 19.1504 6.39681 18.4114 6.28104C18.3014 6.26197 18.1877 6.25227 18.0721 6.25227C16.4145 6.25227 14.3076 8.14803 13.3684 9.34351L13.2701 9.46865L13.1717 9.34284C12.2435 8.14937 10.1433 6.25461 8.45909 6.25461C8.24275 6.25461 8.03738 6.28706 7.84962 6.3513C7.25045 6.55406 6.83206 7.14996 6.83206 7.79939V14.9164C6.83206 15.3333 6.84435 15.7769 6.86529 16.1664C7.14012 21.23 8.68506 27.35 14.481 27.7468C14.6243 27.7561 14.7652 27.7608 14.9031 27.7608C16.0462 27.7608 17.095 27.4242 18.1103 26.7313L18.5273 26.4462L18.2907 26.8946C17.318 28.7341 15.4511 31.8401 13.8822 31.9672C13.8303 31.9746 13.7702 31.9786 13.71 31.9786C11.2369 31.9793 7.22453 25.1377 6.11658 22.5376C4.72981 19.2884 3.62452 15.5728 3.30184 13.0738L3.24967 12.689C2.88478 10.0214 2.62125 8.09383 5.10267 6.60626C5.22763 6.53131 5.90024 6.13549 6.1538 6.00501C8.55147 4.76603 14.5133 3.03722 18.7776 3.03722C21.3414 3.03722 22.8824 3.64617 23.3566 4.846C25.0896 8.56894 22.6318 18.2211 20.2803 21.126ZM24.3685 1.37917C23.1167 0.464071 21.2015 0 18.6759 0C13.4449 0 6.92182 2.00317 3.63785 3.93976C0.0189073 6.05401 -0.354951 9.04755 0.216304 13.1927C0.584513 15.7664 1.61769 19.9454 3.41321 23.9537C3.92165 25.09 8.53556 35.0563 13.7666 35.0563H13.7672C13.8493 35.0563 13.9311 35.0533 14.0138 35.0489C16.9612 34.8562 19.8832 31.3956 22.6986 24.7651C23.8036 22.1801 24.7205 19.6924 25.4243 17.3704C26.6798 13.1934 27.831 7.44221 26.1817 3.7564C25.7443 2.77105 25.3067 2.0654 24.3685 1.37917Z" fill="#E3051B"></path></svg>
