<svg width="37" height="23" viewBox="0 0 37 23" fill="none" xmlns="http://www.w3.org/2000/svg">
<path d="M23.014 2.39404H13.2188V19.9964H23.014V2.39404Z" fill="#FF5F00"/>
<path d="M13.8368 11.1946C13.8353 9.49934 14.2194 7.82598 14.9602 6.30116C15.701 4.77634 16.7789 3.44003 18.1125 2.3934C16.4611 1.09534 14.4778 0.288097 12.3892 0.0639344C10.3007 -0.160228 8.19126 0.207737 6.30197 1.12577C4.41269 2.04381 2.81981 3.47487 1.70539 5.25539C0.590982 7.03591 0 9.09405 0 11.1946C0 13.2951 0.590982 15.3532 1.70539 17.1338C2.81981 18.9143 4.41269 20.3453 6.30197 21.2634C8.19126 22.1814 10.3007 22.5494 12.3892 22.3252C14.4778 22.1011 16.4611 21.2938 18.1125 19.9958C16.779 18.9491 15.701 17.6128 14.9602 16.088C14.2194 14.5632 13.8353 12.8898 13.8368 11.1946Z" fill="#EB001B"/>
<path d="M36.2291 11.1946C36.2292 13.2951 35.6383 15.3532 34.5239 17.1337C33.4096 18.9142 31.8168 20.3453 29.9275 21.2634C28.0383 22.1814 25.9288 22.5494 23.8404 22.3252C21.7519 22.1011 19.7686 21.2938 18.1172 19.9957C19.4496 18.9481 20.5267 17.6115 21.2673 16.087C22.008 14.5624 22.3928 12.8895 22.3928 11.1946C22.3928 9.49961 22.008 7.82677 21.2673 6.30219C20.5267 4.77761 19.4496 3.44109 18.1172 2.3934C19.7686 1.09534 21.7519 0.288093 23.8404 0.0639324C25.9288 -0.160228 28.0383 0.207744 29.9275 1.12579C31.8168 2.04383 33.4096 3.4749 34.5239 5.25543C35.6383 7.03595 36.2292 9.09408 36.2291 11.1946Z" fill="#F79E1B"/>
<path d="M35.1623 18.1332V17.7729H35.3076V17.6995H34.9375V17.7729H35.0829V18.1332H35.1623ZM35.8807 18.1332V17.6987H35.7673L35.6368 17.9976L35.5063 17.6987H35.3928V18.1332H35.4729V17.8055L35.5953 18.0881H35.6783L35.8007 17.8048V18.1332H35.8807Z" fill="#F79E1B"/>
</svg>
