<svg version="1.0" xmlns="http://www.w3.org/2000/svg"
 width="104.000000pt" height="104.000000pt" viewBox="0 0 104.000000 104.000000"
 preserveAspectRatio="xMidYMid meet">
<g transform="translate(0.000000,104.000000) scale(0.100000,-0.100000)"
 fill="#FD2427" stroke="none">
<path d="M421 845 l-76 -75 53 0 52 0 0 -85 0 -85 70 0 70 0 0 85 0 85 53 0
52 0 -76 75 c-50 49 -84 75 -99 75 -15 0 -49 -26 -99 -75z"/>
<path d="M192 617 c-96 -96 -96 -105 3 -206 l75 -76 0 178 c0 97 -1 177 -3
177 -1 0 -35 -33 -75 -73z"/>
<path d="M770 520 l0 -175 75 76 c49 50 75 84 75 99 0 15 -26 49 -75 99 l-75
76 0 -175z"/>
<path d="M450 350 l0 -80 -57 0 -58 0 76 -75 c101 -99 110 -99 209 0 l74 75
-52 0 -52 0 0 80 0 80 -70 0 -70 0 0 -80z"/>
</g>
</svg>
