<svg width="46" height="15" viewBox="0 0 46 15" fill="none" xmlns="http://www.w3.org/2000/svg">
<g clip-path="url(#clip0_574_22942)">
<path d="M19.7839 14.5609H16.0859L18.3989 0.259277H22.0966L19.7839 14.5609Z" fill="#00579F"/>
<path d="M33.1866 0.608876C32.4572 0.319504 31.3003 0 29.8698 0C26.218 0 23.6464 1.94735 23.6306 4.73148C23.6003 6.7856 25.4718 7.92651 26.8715 8.61142C28.3022 9.31129 28.7886 9.7681 28.7886 10.3919C28.774 11.35 27.6325 11.7917 26.5678 11.7917C25.0914 11.7917 24.3003 11.564 23.0982 11.031L22.6112 10.8024L22.0938 14.0128C22.9611 14.408 24.559 14.7586 26.218 14.774C30.0981 14.774 32.6242 12.8568 32.6541 9.88984C32.6689 8.26179 31.6807 7.01431 29.5501 5.99493C28.2567 5.34056 27.4646 4.89932 27.4646 4.22978C27.4798 3.6211 28.1346 2.99767 29.5946 2.99767C30.7968 2.96713 31.6801 3.2561 32.3492 3.54527L32.6837 3.69714L33.1866 0.608876Z" fill="#00579F"/>
<path d="M38.1041 9.49434C38.4087 8.67273 39.5805 5.49286 39.5805 5.49286C39.5652 5.5234 39.8845 4.65609 40.0671 4.12365L40.3255 5.35596C40.3255 5.35596 41.0258 8.77929 41.1778 9.49434C40.5999 9.49434 38.8346 9.49434 38.1041 9.49434ZM42.6688 0.259277H39.8084C38.9264 0.259277 38.2562 0.517711 37.8756 1.44589L32.3828 14.5607H36.263C36.263 14.5607 36.9018 12.7955 37.0391 12.4154C37.4647 12.4154 41.2393 12.4154 41.7869 12.4154C41.8931 12.9175 42.2282 14.5607 42.2282 14.5607H45.6521L42.6688 0.259277Z" fill="#00579F"/>
<path d="M12.9971 0.259277L9.37559 10.0116L8.97985 8.03372C8.3103 5.7515 6.21048 3.27191 3.86719 2.03899L7.18436 14.5457H11.0948L16.9074 0.259277H12.9971Z" fill="#00579F"/>
<path d="M6.0105 0.259277H0.0608671L0 0.548246C4.64109 1.73506 7.71479 4.59583 8.97764 8.03433L7.68426 1.46146C7.47132 0.548043 6.81694 0.289408 6.0105 0.259277Z" fill="#FAA61A"/>
</g>
<defs>
<clipPath id="clip0_574_22942">
<rect width="45.6497" height="14.774" fill="white"/>
</clipPath>
</defs>
</svg>
