<svg xmlns="http://www.w3.org/2000/svg" version="1.1" xmlns:xlink="http://www.w3.org/1999/xlink" width="1000" height="1000"><g clip-path="url(#SvgjsClipPath1139)"><rect width="1000" height="1000" fill="#ffffff"></rect><g transform="matrix(1.5625,0,0,1.5625,100,100)"><svg xmlns="http://www.w3.org/2000/svg" version="1.1" xmlns:xlink="http://www.w3.org/1999/xlink" width="512" height="512"><svg width="512" height="512" viewBox="0 0 512 512" fill="none" xmlns="http://www.w3.org/2000/svg">
<g clip-path="url(#clip0_2137_1145)">
<rect width="512" height="512" fill="white"></rect>
<path d="M17 144.739C19.3037 123.796 22.2594 113.245 29.1718 101.282C41.5602 79.8425 60.775 65.1309 95.8598 50.2237C148.553 27.8345 225.596 8.98177 292.217 2.17445C302.49 1.1246 319.266 -0.125038 331.002 -0.715942C332.882 -0.810805 334.762 -0.905137 336.642 -1C344.07 -1 351.499 -1 358.927 -1C364.602 -0.602531 369.975 -0.23474 374.527 0.0742262C412.861 2.67367 440.959 11.5939 459.556 27.0693C476.388 41.0755 488.671 65.1415 492.947 92.4895C500.114 138.333 488.454 200.767 458.942 274.579C438.368 326.035 408.996 383.889 385.547 419.149C348.603 474.698 312.006 504.845 273.764 511.229C272.225 511.486 270.687 511.743 269.148 512C263.629 512 258.111 512 252.592 512C237.513 509.638 230.942 507.832 219.581 502.924C189.731 490.031 159.737 464.684 128.728 426.147C94.0387 383.035 66.1688 334.028 46.3001 281.203C29.6647 236.974 20.7733 200.79 17.3489 163.386C17.2324 162.117 17.1165 160.847 17 159.577C17 154.631 17 149.685 17 144.739ZM440.641 107.377C438.947 90.3749 435.744 78.8446 429.865 68.5899C421.69 54.3272 402.419 46.5564 368.871 43.9951C352.871 42.7735 321.904 43.8637 298.437 46.4737C241.025 52.8597 166.042 70.2222 128.801 85.7532C95.4173 99.6757 80.6768 110.88 74.0153 127.396C68.9876 139.861 69.2073 154.178 74.9398 187.665C79.5893 214.827 86.687 239.344 98.9473 270.604C113.229 307.015 127.756 335.852 144.202 360.432C168.455 396.68 194.589 427.291 217.515 446.306C228.15 455.126 235.783 460.081 244.034 463.518C255.513 468.299 263.74 468.445 274.008 464.047C280.783 461.146 285.906 457.716 294.106 450.594C304.277 441.76 315.208 429.351 327.063 413.183C333.168 404.857 345.073 386.63 344.302 386.79C343.969 386.859 340.969 388.444 337.634 390.313C317.078 401.833 295.17 406.679 271.376 404.968C240.012 402.713 215.327 393.229 194.605 375.473C161.473 347.084 142.556 299.104 138.632 233.507C137.742 218.63 137.776 113.003 138.672 108.931C140.095 102.465 145.638 96.2681 152.624 93.3332C171.584 85.3668 202.97 96.1526 234.355 121.42C238.519 124.772 244.083 129.661 246.72 132.285C249.358 134.908 251.71 137.12 251.947 137.201C252.184 137.282 253.782 135.851 255.498 134.021C257.215 132.192 262.492 127.464 267.227 123.514C308.618 88.9827 349.452 80.6454 363.269 103.904C364.05 105.22 364.832 106.536 365.613 107.851C365.669 137.617 365.725 167.383 365.781 197.149C365.887 253.73 365.721 287.474 365.327 289.251C363.84 295.946 358.401 301.805 350.813 304.886C346.711 306.551 346.171 306.633 339.189 306.637C332.296 306.641 331.619 306.543 327.649 304.978C322.654 303.008 319.016 300.404 316.252 296.819C311.846 291.105 312.161 296.659 311.809 218.403C311.703 194.82 311.597 171.237 311.49 147.653C309.307 149.489 307.123 151.324 304.94 153.16C293.616 162.677 287.1 170.888 283.219 180.532C280.469 187.366 279.404 193.305 278.44 207.184C277.622 218.967 277.528 219.492 275.647 222.838C273.171 227.243 269.273 230.482 263.702 232.765C259.442 234.511 259.071 234.567 251.652 234.567C244.68 234.567 243.672 234.44 240.356 233.146C233.303 230.395 227.557 224.401 225.969 218.138C225.599 216.681 225.145 211.553 224.959 206.744C224.063 183.514 217.062 168.963 199.539 153.907C195.705 150.613 192.293 147.918 191.959 147.918C191.573 147.918 191.459 164.229 191.648 192.302C191.963 238.961 192.148 242.488 195.31 262.367C199.26 287.198 207.245 310.342 217.076 325.455C223.367 335.126 232.7 344.635 241.131 349.964C246.676 353.469 256.779 357.501 263.417 358.857C271.09 360.425 283.077 360.797 290.621 359.7C312.093 356.58 332.232 346.969 353.424 329.729C372.947 313.847 385.713 299.129 396.75 279.776C419.173 240.458 436.468 184.026 440.406 137.319C441.002 130.254 441.141 112.403 440.641 107.377Z" fill="#E6030F"></path>
</g>
<defs>
<clipPath id="clip0_2137_1145">
<rect width="512" height="512" fill="white"></rect>
</clipPath>
<clipPath id="SvgjsClipPath1139"><rect width="1000" height="1000" x="0" y="0" rx="200" ry="200"></rect></clipPath></defs>
</svg></svg></g></g></svg>