<svg width="16" height="16" viewBox="0 0 16 16" fill="none" xmlns="http://www.w3.org/2000/svg">
<g clip-path="url(#clip0_574_14192)">
<path d="M12.7988 0.150391C13.6141 0.150424 14.3796 0.467431 14.9561 1.04395C15.5325 1.62037 15.8496 2.38591 15.8496 3.20117C15.8496 4.01641 15.5325 4.78189 14.9561 5.3584L8.20703 12.0898C8.02126 12.275 7.72038 12.2746 7.53516 12.0889C7.34994 11.9031 7.35038 11.6022 7.53613 11.417L11.4268 7.53711L11.5332 7.43066L8.56543 4.46289L2.72168 10.3066L2.82715 10.4131L6.00977 13.6055C6.12858 13.7247 6.17524 13.8977 6.13281 14.0605C6.09038 14.2233 5.96545 14.3514 5.80371 14.3975L0.754883 15.832C0.712038 15.8442 0.668243 15.8496 0.625 15.8496C0.501183 15.8496 0.380248 15.8016 0.290039 15.7119C0.168377 15.5909 0.121174 15.4134 0.166992 15.248L1.57227 10.1992C1.59418 10.1204 1.63647 10.0481 1.69434 9.99023L10.6406 1.04395C11.2172 0.467418 11.9835 0.150391 12.7988 0.150391ZM2.20898 11.4561L1.38086 14.4287L1.30957 14.6865L1.56641 14.6133L4.52246 13.7744L4.76758 13.7041L4.58691 13.5244L2.45996 11.3896L2.27832 11.208L2.20898 11.4561ZM9.2373 3.79102L12.2061 6.75977L12.3125 6.6543L13.2109 5.75781L13.3174 5.65234L10.3467 2.68164L9.2373 3.79102ZM12.7988 1.09961C12.2378 1.09961 11.7092 1.31909 11.3125 1.71582L11.125 1.9043L11.0186 2.00977L13.8838 4.875L13.9893 4.98145L14.0957 4.875L14.2852 4.68652C14.6813 4.29041 14.9004 3.76213 14.9004 3.20117C14.9004 2.64026 14.6808 2.11245 14.2842 1.71582C13.8875 1.31914 13.3597 1.09964 12.7988 1.09961Z" fill="black" stroke="#F7F7F7" stroke-width="0.3"/>
</g>
<defs>
<clipPath id="clip0_574_14192">
<rect width="16" height="16" fill="white"/>
</clipPath>
</defs>
</svg>
