<svg width="18" height="18" viewBox="0 0 18 18" fill="none" xmlns="http://www.w3.org/2000/svg">
<path d="M0.703125 1.71313H10.3359C10.6414 1.71313 10.8887 1.96038 10.8887 2.26587V5.23169H13.3945C13.9539 5.23169 14.4195 5.43952 14.751 5.82642C14.9775 6.09093 15.1449 6.4393 15.2549 6.89575L15.2988 7.09888L15.7012 9.14771L15.7207 9.24438L15.8164 9.26489C16.9782 9.5211 17.8496 10.5599 17.8496 11.7971V14.3284C17.8494 14.6337 17.6022 14.8811 17.2969 14.8811H14.9609L14.9248 14.9807C14.655 15.7413 13.9291 16.2874 13.0781 16.2874C12.2272 16.2874 11.5012 15.7413 11.2314 14.9807L11.1953 14.8811H6.62891L6.59277 14.9807C6.32298 15.7413 5.59702 16.2874 4.74609 16.2874C3.89472 16.2874 3.16784 15.741 2.89844 14.9797L2.86426 14.8821L2.75977 14.8801L2.49316 14.8616C1.1753 14.7034 0.150587 13.5786 0.150391 12.219V2.26587C0.150391 1.96038 0.397632 1.71313 0.703125 1.71313ZM4.74609 13.4749C4.27555 13.4749 3.89258 13.8578 3.89258 14.3284C3.89279 14.7987 4.27568 15.1809 4.74609 15.1809C5.21651 15.1809 5.5994 14.7987 5.59961 14.3284C5.59961 13.8578 5.21664 13.4749 4.74609 13.4749ZM13.0781 13.4749C12.6076 13.4749 12.2246 13.8578 12.2246 14.3284C12.2248 14.7987 12.6077 15.1809 13.0781 15.1809C13.5485 15.1809 13.9314 14.7987 13.9316 14.3284C13.9316 13.8578 13.5487 13.4749 13.0781 13.4749ZM1.25586 12.219C1.25607 13.0569 1.92183 13.7417 2.75195 13.7737L2.8623 13.7776L2.89941 13.6741C3.16953 12.9141 3.89565 12.3684 4.74609 12.3684C5.597 12.3684 6.32299 12.9145 6.59277 13.675L6.62891 13.7747H11.1953L11.2314 13.675C11.5013 12.9145 12.2272 12.3684 13.0781 12.3684C13.929 12.3684 14.655 12.9145 14.9248 13.675L14.9609 13.7747H16.7441V11.7971C16.7441 11.0349 16.1673 10.4052 15.4277 10.3206L15.3984 10.3176L15.3701 10.3254C15.3221 10.3387 15.2729 10.3459 15.2227 10.3459H3.51562C3.21026 10.3459 2.9631 10.0985 2.96289 9.79321C2.96289 9.48772 3.21013 9.2395 3.51562 9.2395H9.7832V2.8186H1.25586V12.219ZM10.8887 9.2395H14.5928L14.5576 9.06079L14.2129 7.31079V7.30884L14.1426 7.01587C14.0657 6.75499 13.9676 6.58639 13.8486 6.48169C13.682 6.33515 13.5017 6.33813 13.3945 6.33813H10.8887V9.2395Z" fill="black" stroke="#F7F7F7" stroke-width="0.3"/>
</svg>
