<svg width="24" height="24" viewBox="0 0 24 24" fill="none" xmlns="http://www.w3.org/2000/svg">
<path d="M16.915 10.3318C16.9179 10.3313 16.9222 10.3304 16.9268 10.3298C16.9334 10.329 16.9432 10.3289 16.9541 10.3289H17.0938L17.1035 10.4685L17.2168 12.1062C17.2453 12.5222 17.09 12.9291 16.7979 13.2253L16.7969 13.2263L10.6787 19.3376L10.6006 19.408C10.1962 19.7372 9.59517 19.7139 9.21875 19.3376L4.66211 14.78C4.46618 14.5841 4.35942 14.3236 4.35938 14.0505C4.35938 13.7734 4.46633 13.5158 4.66211 13.3201L10.7764 7.20581C11.0693 6.91283 11.4768 6.75741 11.8926 6.78589L17.3252 7.14722C17.6028 7.16685 17.8464 6.95664 17.8662 6.67358C17.8858 6.39598 17.6746 6.15336 17.3916 6.13354V6.13257L11.96 5.77222L11.6963 5.76831C11.0846 5.79298 10.4985 6.04804 10.0625 6.48706L3.94727 12.6023C3.55978 12.9898 3.34961 13.5027 3.34961 14.0505C3.34966 14.5978 3.56352 15.1107 3.94824 15.4988H3.94727L8.50098 20.0515C8.89844 20.449 9.42534 20.6501 9.94922 20.6501C10.4723 20.65 10.9951 20.4492 11.3965 20.0515L17.5117 13.9373C18.0138 13.4351 18.2747 12.7402 18.2266 12.032L18.0957 10.113L18.0889 10.0115L18.1807 9.96753C18.6243 9.75626 19.0372 9.46289 19.4053 9.09839C20.1051 8.39842 20.5407 7.51074 20.6318 6.60327C20.7262 5.64785 20.4358 4.78902 19.8252 4.17456L19.6279 3.99683C19.1498 3.60534 18.5363 3.37768 17.8711 3.35327L17.5986 3.35425C16.9627 3.38004 16.319 3.58008 15.7266 3.94409H15.7256C15.5154 4.07273 15.432 4.32861 15.5117 4.54761L15.5566 4.63843V4.6394L15.6191 4.72144C15.7806 4.89477 16.0456 4.93638 16.251 4.80933L16.252 4.80835C17.2414 4.20202 18.4213 4.20738 19.1064 4.89233C19.5084 5.29432 19.686 5.87085 19.6201 6.50269L19.582 6.75757C19.464 7.35068 19.1492 7.91883 18.6836 8.38452C18.1513 8.91681 17.4811 9.25244 16.8008 9.32202L16.5664 9.33374C16.028 9.33576 15.5429 9.15635 15.1914 8.80835V8.80737C14.9828 8.59882 14.7067 8.48706 14.4141 8.48706C14.1186 8.48717 13.8423 8.60209 13.6328 8.80835C13.4248 9.01676 13.3135 9.29243 13.3135 9.58862C13.3136 9.88398 13.4285 10.1597 13.6377 10.3689C13.8463 10.5774 14.1215 10.6901 14.4141 10.6902C14.7096 10.6902 14.9858 10.5741 15.1953 10.3679C15.2413 10.3219 15.2828 10.2743 15.3164 10.2253L15.3818 10.1306L15.4902 10.1697C15.8203 10.2878 16.1756 10.3503 16.5527 10.3503C16.6672 10.3503 16.787 10.3435 16.9082 10.3328L16.915 10.3318ZM16.915 10.3318C16.9128 10.3319 16.9108 10.3327 16.9102 10.3328C16.9105 10.3327 16.9116 10.333 16.9131 10.3328L16.915 10.3318Z" fill="black" stroke="#F7F7F7" stroke-width="0.3"/>
</svg>
