<svg xmlns="http://www.w3.org/2000/svg" width="28" height="41" viewBox="0 0 28 41" fill="none">
<path d="M28 14.1379C28 23.3276 14 33.2241 14 38.1724C14 33.2241 0 23.3276 0 14.1379C0 6.32977 6.26801 0 14 0C21.732 0 28 6.32977 28 14.1379Z" fill="#E3051B"/>
<path fill-rule="evenodd" clip-rule="evenodd" d="M17.7508 17.5836C17.4373 18.0128 16.2982 19.435 14.9034 19.5793C14.8217 19.587 14.7407 19.5914 14.6624 19.5914C12.0709 19.5914 11.8694 15.3001 11.8694 13.9845V11.3813L11.988 11.4916C12.7882 12.2367 12.943 12.9952 12.9299 13.9044C12.9599 14.4953 13.3777 14.7617 13.7787 14.7617C14.186 14.7617 14.6283 14.4898 14.6356 13.8929C14.648 12.9527 14.7178 12.3219 15.5828 11.4926L15.7017 11.3781V16.6682C15.7017 17.1563 16.0811 17.539 16.565 17.539C17.0572 17.539 17.4277 17.1643 17.4277 16.6682V10.0593C17.4277 9.63617 17.1129 9.26741 16.6956 9.20205C16.6335 9.19128 16.5693 9.1858 16.504 9.1858C15.5681 9.1858 14.3785 10.2562 13.8483 10.9311L13.7928 11.0018L13.7372 10.9308C13.2132 10.2569 12.0274 9.18712 11.0765 9.18712C10.9543 9.18712 10.8383 9.20545 10.7323 9.24172C10.394 9.3562 10.1578 9.69265 10.1578 10.0593V14.0776C10.1578 14.313 10.1648 14.5635 10.1766 14.7834C10.3317 17.6424 11.204 21.0977 14.4765 21.3218C14.5574 21.3271 14.6369 21.3297 14.7148 21.3297C15.3602 21.3297 15.9524 21.1397 16.5256 20.7485L16.7611 20.5875L16.6275 20.8406C16.0783 21.8793 15.0242 23.6329 14.1384 23.7047C14.1091 23.7089 14.0752 23.7111 14.0412 23.7111C12.6448 23.7115 10.3794 19.8487 9.75385 18.3806C8.97087 16.5461 8.34681 14.4483 8.16462 13.0373L8.13517 12.8201C7.92915 11.3139 7.78036 10.2256 9.18139 9.38567C9.25194 9.34335 9.6317 9.11987 9.77486 9.0462C11.1286 8.34666 14.4947 7.37056 16.9024 7.37056C18.3499 7.37056 19.22 7.71438 19.4877 8.39181C20.4662 10.4938 19.0785 15.9435 17.7508 17.5836ZM20.0595 6.43396C19.3527 5.91729 18.2714 5.65527 16.8454 5.65527C13.8919 5.65527 10.2089 6.78628 8.35475 7.8797C6.31146 9.07342 6.10037 10.7636 6.42291 13.104C6.6308 14.5571 7.21414 16.9166 8.22791 19.1798C8.51498 19.8213 11.12 25.4484 14.0735 25.4484H14.0739C14.1202 25.4484 14.1664 25.4467 14.2131 25.4442C15.8772 25.3354 17.527 23.3815 19.1166 19.6379C19.7405 18.1783 20.2582 16.7738 20.6556 15.4628C21.3644 13.1044 22.0144 9.85721 21.0832 7.77617C20.8363 7.21983 20.5892 6.82142 20.0595 6.43396Z" fill="white"/>
</svg>
