<svg width="374" height="308" viewBox="0 0 374 308" fill="none" xmlns="http://www.w3.org/2000/svg">
<path d="M130.662 307.351C128.915 294.388 138.752 274.346 151.991 272.599C165.322 270.945 172.585 282.345 176.722 294.572C179.112 280.782 187.754 270.853 195.017 260.74C202.372 250.627 213.129 242.628 225.448 240.698C237.767 238.767 251.466 243.916 257.809 254.58C262.59 262.579 262.866 272.6 260.659 281.701C258.453 290.803 255.051 298.617 249.443 307.259" fill="#F1F1F1"/>
<path d="M103.177 307.444C103.177 307.352 99.8674 294.757 99.1319 279.127C98.6722 269.934 99.1319 261.384 100.603 253.845C102.35 244.376 105.659 236.469 110.256 230.218C118.346 219.277 130.758 213.393 147.122 212.842C159.258 212.382 170.474 217.163 180.587 226.908C188.585 234.631 195.848 245.663 202.1 259.453C212.764 282.989 217.086 307.076 217.177 307.352L216.258 307.536C216.258 307.26 211.937 283.265 201.273 259.821C195.021 246.123 187.85 235.182 179.943 227.552C170.106 217.99 159.074 213.393 147.214 213.761C131.126 214.313 118.99 220.105 110.992 230.769C106.395 236.929 103.269 244.744 101.522 254.029C100.143 261.476 99.5916 269.934 100.051 279.036C100.787 294.665 104.096 307.076 104.096 307.168L103.177 307.444Z" fill="white"/>
<path d="M90.4891 307.351C90.3053 292.182 95.4537 276.369 106.21 265.705C116.967 254.948 133.699 249.984 148.041 254.948C158.154 258.534 166.244 266.532 171.944 275.726C177.552 284.919 183.068 297.147 186.47 307.351" fill="#E3051B"/>
<path d="M231.984 307.351C231.984 307.351 259.197 218.082 283.193 266.44C283.193 266.44 292.11 231.964 310.314 232.792C327.781 233.527 325.023 270.669 325.023 270.669C325.023 270.669 359.315 230.677 362.349 307.168L231.984 307.351Z" fill="white"/>
<path d="M119.73 10.4907C120.189 15.1794 116.328 19.9601 111.639 20.4198C107.318 20.8795 103.181 18.1214 98.7682 18.2133C93.8037 18.3972 89.3908 22.4424 88.2876 27.315C87.1843 32.1876 89.115 37.4279 92.5166 41.0134C96.0102 44.5989 100.791 46.6215 105.755 47.357C110.72 48.0925 115.684 47.6328 120.649 46.8054" fill="#262626"/>
<path d="M138.945 13.7085C138.026 17.5698 139.313 21.7069 141.244 25.2005C143.174 28.694 145.657 31.9118 147.311 35.4973C149.058 39.0828 150.069 43.3118 148.69 47.0812C146.76 52.4135 140.324 55.2635 134.808 53.8844C129.292 52.5973 125.063 47.7247 123.5 42.3005" fill="#262626"/>
<path d="M110.07 41.6564L110.622 49.4709L129.653 51.5854L128.457 45.4258L129.193 31.6354L117.701 20.8789L110.07 41.6564Z" fill="#FFB78F"/>
<path d="M121.656 30.2576C122.392 34.4866 125.15 38.3479 128.735 40.6463L129.195 32.0044L125.793 28.7866C124.414 29.3382 123.035 29.7979 121.656 30.2576Z" fill="#262626"/>
<path d="M142.431 11.2266V11.3185C142.523 11.5943 142.523 11.8701 142.523 12.1459C143.81 20.5121 141.42 30.625 136.547 34.0267C127.814 40.0944 121.01 31.2686 121.01 31.2686L116.965 15.5476L116.781 14.7201C116.781 14.7201 116.781 14.7201 116.781 14.6282C116.781 14.5363 116.781 14.4443 116.873 14.1685C116.873 13.9846 116.965 13.6169 117.057 13.3411C117.517 11.1346 118.804 6.81367 121.93 3.68785C124.32 1.29752 127.814 -0.449261 132.962 0.102353C133.054 0.102353 133.054 0.102353 133.146 0.102353C133.697 0.194289 134.341 0.286226 134.893 0.470098C135.076 0.562033 135.26 0.562031 135.536 0.653966C139.122 2.033 141.328 5.61849 142.339 10.0314C142.247 10.4911 142.339 10.8588 142.431 11.2266Z" fill="#FFB78F"/>
<path d="M133.879 25.2004C133.787 25.2004 133.787 25.2004 133.695 25.2004L133.787 24.2811C134.063 24.2811 134.247 24.1891 134.431 24.0972C134.615 23.9133 134.707 23.7295 134.707 23.4536L134.89 17.2939H135.81L135.626 23.4536C135.626 23.9133 135.35 24.4649 134.982 24.7407C134.799 25.0165 134.339 25.2004 133.879 25.2004Z" fill="#262626"/>
<path d="M130.845 17.3862C130.753 17.8459 130.478 18.2136 130.202 18.1217C129.834 18.1217 129.65 17.662 129.742 17.2023C129.834 16.7426 130.11 16.3749 130.386 16.4668C130.662 16.4668 130.937 16.9265 130.845 17.3862Z" fill="#262626"/>
<path d="M139.955 18.3979C139.863 18.8576 139.587 19.2253 139.311 19.1334C138.943 19.1334 138.76 18.6737 138.852 18.214C138.943 17.7543 139.219 17.3866 139.495 17.4785C139.771 17.4785 139.955 17.9382 139.955 18.3979Z" fill="#262626"/>
<path d="M131.672 27.1316C131.12 27.0397 130.569 26.6719 130.201 26.1203C129.925 25.5687 129.833 24.9251 129.925 24.3735L130.844 24.6493C130.753 25.0171 130.753 25.3848 130.936 25.6606C131.12 25.9364 131.396 26.2123 131.764 26.2123L131.672 27.1316Z" fill="#262626"/>
<path d="M129.283 13.2491C129.007 13.2491 128.731 13.3411 128.547 13.433C128.364 13.5249 128.18 13.7088 128.18 13.8927C128.18 14.1685 128.639 14.3524 129.099 14.4443C130.018 14.6282 131.03 14.6282 131.949 14.4443C132.317 14.3524 132.593 14.2604 132.776 14.0766C133.052 13.6169 132.133 13.3411 131.765 13.2491C130.846 13.1572 130.018 13.1572 129.283 13.2491Z" fill="#262626"/>
<path d="M138.761 14.0762C138.485 14.0762 138.302 14.0762 138.118 14.1681C137.934 14.26 137.75 14.352 137.75 14.5359C137.75 14.8117 138.118 14.9955 138.485 15.1794C139.221 15.4552 140.048 15.6391 140.876 15.6391C141.152 15.6391 141.519 15.5471 141.611 15.4552C141.887 15.0875 141.152 14.6278 140.784 14.5359C140.232 14.1681 139.497 14.0762 138.761 14.0762Z" fill="#262626"/>
<path d="M135.35 0.745275C134.522 4.51464 132.96 8.0082 130.11 10.4905C126.524 13.4324 121.651 14.1679 117.055 13.4324C117.514 11.226 118.801 6.90497 121.927 3.77916C124.318 1.38883 127.903 -0.357953 133.143 0.193662C133.879 0.193662 134.614 0.377532 135.35 0.745275Z" fill="#262626"/>
<path d="M120.274 14.9037C119.814 13.8924 118.711 13.3408 117.7 13.2488C116.597 13.1569 115.585 13.7085 114.758 14.3521C112.919 16.0069 112.368 18.9488 113.563 21.0634C114.758 23.1779 117.608 24.2811 119.906 23.5456" fill="#FFB78F"/>
<path d="M117.058 20.3283H116.139C116.231 19.1331 116.69 17.938 117.426 17.0186L116.047 16.9267L116.139 16.0073L118.529 16.1912L118.805 17.0186C117.794 17.7541 117.15 19.0412 117.058 20.3283Z" fill="#262626"/>
<path d="M142.429 11.2263V11.3182C140.866 10.5827 139.395 9.66337 138.108 8.4682C135.625 6.26174 133.787 3.3198 132.867 0.102051C132.959 0.102051 132.959 0.102051 133.051 0.102051C133.603 0.193987 134.246 0.285924 134.798 0.469795C134.982 0.561731 135.166 0.561728 135.441 0.653664C139.027 2.0327 141.233 5.61819 142.245 10.0311C142.245 10.4908 142.337 10.8585 142.429 11.2263Z" fill="#262626"/>
<path d="M93.8825 35.4972C98.7551 33.9342 112.086 36.8762 112.086 36.8762C112.086 36.8762 116.866 51.1262 128.634 43.9552C128.634 43.9552 146.286 46.3456 150.147 49.8391C153.917 53.4246 168.994 78.7989 168.994 78.7989L168.167 109.046C156.123 109.046 145.55 97.4619 139.391 89.4635C138.196 87.9005 137.184 86.5215 136.357 85.3263C134.61 82.8441 133.691 81.0973 133.691 81.0973L91.4922 78.4312" fill="#F1F1F1"/>
<path d="M141.335 64.1816L139.772 88.2688L135.359 86.8898L141.335 64.1816Z" fill="#C6C6C6"/>
<path d="M97.4688 78.7077L100.227 69.8818L100.043 78.7077" fill="#C6C6C6"/>
<path d="M249.171 204.017H98.2125C89.1109 204.017 81.6641 196.57 81.6641 187.468V101.692C81.6641 92.5904 89.1109 85.1436 98.2125 85.1436H249.171C258.273 85.1436 265.719 92.5904 265.719 101.692V187.468C265.719 196.57 258.273 204.017 249.171 204.017ZM98.2125 86.0629C89.5705 86.0629 82.5834 93.05 82.5834 101.692V187.468C82.5834 196.11 89.5705 203.097 98.2125 203.097H249.171C257.813 203.097 264.8 196.11 264.8 187.468V101.692C264.8 93.05 257.813 86.0629 249.171 86.0629H98.2125Z" fill="#262626"/>
<path d="M235.383 78.7085H84.4247C75.5069 78.7085 68.3359 85.8795 68.3359 94.7973V180.573C68.3359 189.491 75.5069 196.662 84.4247 196.662H177.923L190.611 218.727L203.298 196.662H235.475C244.393 196.662 251.564 189.491 251.564 180.573V94.7973C251.472 85.9714 244.301 78.7085 235.383 78.7085Z" fill="white"/>
<path d="M159.904 117.045C154.021 105.461 136.461 103.714 128.738 114.471C124.233 120.814 123.774 129.272 125.98 136.627C128.187 143.89 133.427 150.418 139.127 155.29C145.287 160.531 152.733 164.3 159.904 168.161C167.075 164.392 174.522 160.623 180.682 155.382C186.382 150.51 191.714 144.074 193.921 136.811C196.127 129.548 195.759 120.998 191.163 114.655C183.348 103.714 165.788 105.461 159.904 117.045Z" fill="#E3051B"/>
<path d="M113.57 118.057C115.869 119.712 117.799 119.712 118.443 118.424C118.994 117.321 115.317 115.023 112.007 113.46C109.709 112.449 107.319 110.886 107.319 110.886L98.125 121.918C98.125 121.918 111.64 130.1 113.386 129.181C114.49 128.629 114.03 127.802 114.03 127.802C114.03 127.802 115.317 128.813 116.144 128.354C116.972 127.986 116.788 126.975 116.788 126.975C116.788 126.975 117.983 127.71 118.535 126.515C119.178 125.32 116.512 121.55 113.57 118.057Z" fill="#FFB78F"/>
<path d="M116.422 127.342C116.422 127.342 115.043 124.676 112.469 122.193L113.112 121.55C115.778 124.124 117.249 126.79 117.249 126.882L116.422 127.342Z" fill="#262626"/>
<path d="M113.656 128.169C113.656 128.169 111.909 125.962 110.07 124.215L110.714 123.572C112.645 125.319 114.299 127.525 114.391 127.617L113.656 128.169Z" fill="#262626"/>
<path d="M100.236 69.9736L96.5582 81.6494L115.313 109.138L94.9033 126.146C94.9033 126.146 66.9549 104.633 61.8984 83.1204C57.5774 64.8252 87.7323 37.5203 93.984 35.5896" fill="#F1F1F1"/>
<path d="M110.921 102.834L88.5625 120.656L89.1355 121.375L111.495 103.553L110.921 102.834Z" fill="#262626"/>
<path d="M65.9397 92.6823L65.0204 92.4065L69.1575 77.6967L64.4688 66.9403L65.2962 66.5725L70.0768 77.4209V77.7887L65.9397 92.6823Z" fill="white"/>
<path d="M133.892 200.521C134.627 198.407 134.443 195.097 132.329 195.189C130.122 195.373 130.766 198.039 129.938 200.338C129.111 202.728 126.812 206.865 126.812 206.865L137.937 215.967C137.937 215.967 145.935 202.452 145.108 200.613C144.556 199.51 143.729 199.97 143.729 199.97C143.729 199.97 144.74 198.683 144.28 197.855C143.821 197.028 142.901 197.212 142.901 197.212C142.901 197.212 143.545 196.017 142.442 195.465C141.154 194.821 137.385 197.579 133.892 200.521Z" fill="#B2614E"/>
<path d="M138.019 201.625L137.375 200.982C139.949 198.224 142.615 196.845 142.707 196.753L143.167 197.58C143.075 197.58 140.501 198.959 138.019 201.625Z" fill="#262626"/>
<path d="M140.136 203.922L139.492 203.279C141.239 201.348 143.445 199.693 143.537 199.601L144.089 200.337C143.997 200.337 141.791 202.084 140.136 203.922Z" fill="#262626"/>
<path d="M133.801 207.6L132.973 207.232C133.617 205.853 133.433 204.106 132.422 202.911L133.157 202.36C134.353 203.739 134.628 205.853 133.801 207.6Z" fill="#262626"/>
<path d="M65.6625 200.614L56.1012 206.865L43.4141 199.878L49.1141 172.022L58.8593 178.733L63.9157 182.227L63.6399 190.041L63.4561 194.73L65.6625 200.614Z" fill="#B2614E"/>
<path d="M58.8709 178.733L64.0193 182.227L63.7435 190.041C59.7903 188.294 56.4806 184.893 55.1016 180.756C56.2967 180.02 57.5838 179.377 58.8709 178.733Z" fill="#262626"/>
<path d="M69.8037 182.134C62.0811 189.489 53.9907 181.859 53.9907 181.859L48.1069 168.16L47.5552 166.873L47.1875 166.046C47.1875 166.046 47.1875 165.862 47.1875 165.586C47.1875 165.494 47.1875 165.494 47.1875 165.402C47.1875 165.31 47.1875 165.126 47.1875 164.942C47.2794 162.828 47.831 158.139 50.4972 154.37C52.5198 151.612 55.8295 149.405 60.9779 149.129C65.4827 148.946 68.7924 151.888 70.9069 156.209V156.3C71.0908 156.668 71.2747 157.128 71.4585 157.496C71.6424 157.863 71.7343 158.231 71.9182 158.691C74.9521 166.873 74.2166 177.905 69.8037 182.134Z" fill="#B2614E"/>
<path d="M65.6641 173.86V172.941C65.9399 172.941 66.1237 172.849 66.3076 172.665C66.4915 172.481 66.4915 172.206 66.4915 172.022L65.756 165.954L66.6754 165.862L67.4108 171.93C67.5028 172.389 67.3189 172.941 67.0431 173.309C66.5834 173.585 66.1237 173.86 65.6641 173.86Z" fill="#262626"/>
<path d="M61.617 166.597C61.617 167.057 61.3412 167.425 61.0654 167.425C60.6977 167.425 60.4219 167.057 60.4219 166.597C60.4219 166.138 60.6977 165.77 60.9735 165.77C61.3412 165.77 61.617 166.138 61.617 166.597Z" fill="#262626"/>
<path d="M70.7264 166.23C70.7264 166.69 70.4506 167.057 70.1748 167.057C69.8071 167.057 69.5312 166.69 69.5312 166.23C69.5312 165.77 69.8071 165.403 70.0829 165.403C70.4506 165.403 70.7264 165.77 70.7264 166.23Z" fill="#262626"/>
<path d="M63.921 176.067C63.2775 176.067 62.7259 175.792 62.3581 175.332C61.9904 174.872 61.8065 174.229 61.8984 173.677L62.8178 173.769C62.7259 174.137 62.9097 174.504 63.0936 174.78C63.2775 175.056 63.6452 175.24 64.0129 175.24L63.921 176.067Z" fill="#262626"/>
<path d="M59.3256 162.459C59.0498 162.551 58.8659 162.643 58.6821 162.827C58.4982 163.011 58.4062 163.287 58.4062 163.563C58.4982 163.93 59.0498 164.114 59.4175 164.206C60.3369 164.298 61.3482 164.206 62.1756 163.838C62.4514 163.747 62.8192 163.471 62.9111 163.195C63.095 162.459 62.0837 162.184 61.624 162.184C60.8885 162.092 60.0611 162.184 59.3256 162.459Z" fill="#262626"/>
<path d="M68.9751 161.908C68.7912 161.908 68.5154 162 68.3315 162.184C68.1476 162.276 67.9638 162.552 68.0557 162.736C68.0557 163.104 68.5154 163.287 68.8831 163.471C69.7105 163.747 70.538 163.747 71.3654 163.563C71.6412 163.471 71.917 163.379 72.1009 163.104C72.3767 162.46 71.5493 162.092 71.1815 162.092C70.3541 161.816 69.6186 161.725 68.9751 161.908Z" fill="#262626"/>
<path d="M195.672 300.364L169.562 283.448L188.777 267.635L212.129 264.509C215.163 264.142 217.277 267.451 215.622 270.026L204.13 287.493C204.13 287.493 198.246 286.85 200.453 293.101L195.672 300.364Z" fill="#262626"/>
<path d="M44.16 195.925C44.16 195.925 59.3294 205.027 63.5584 194.638C63.5584 194.638 81.3021 196.109 85.623 200.338C90.0359 204.567 105.113 231.504 105.113 231.504L123.684 204.016L144.83 214.68C144.83 214.68 127.178 259.913 118.444 261.567C109.71 263.314 20.9922 264.509 20.9922 264.509" fill="#F1F1F1"/>
<path d="M58.4891 307.35C81.2892 307.35 96.5505 291.078 105.928 275.724C106.48 274.805 107.123 273.794 107.583 272.874C114.662 260.463 117.788 249.431 117.788 249.431L175.523 292.457L197.036 261.382C197.036 261.382 152.539 220.287 131.21 220.747C109.881 221.206 99.4924 239.134 99.4924 239.134L44.331 259.819L23.0019 260.923C22.91 260.923 15.5551 307.35 58.4891 307.35Z" fill="#B4B4B4"/>
<path d="M188.994 254.346L167.422 286.26L168.184 286.775L189.755 254.861L188.994 254.346Z" fill="#262626"/>
<path d="M32.6561 232.792L34.7706 245.295L47.4577 254.856L42.5851 262.763L26.3125 248.329L32.6561 232.792Z" fill="#C6C6C6"/>
<path d="M116.508 224.057C116.508 224.057 148.226 249.616 160.361 269.658L146.755 277.748L116.508 224.057Z" fill="#737373"/>
<path d="M143.172 307.259L123.406 283.264L146.482 273.978L169.742 278.023C172.776 278.575 173.787 282.436 171.397 284.367L155.124 297.606C155.124 297.606 148.781 294.94 149.976 301.835L143.172 307.259Z" fill="#262626"/>
<path d="M85.6151 245.754L123.125 291.906L155.762 268.462C155.762 268.462 116.689 212.565 94.1651 213.117C71.6409 213.669 44.3359 259.82 44.3359 259.82" fill="#B4B4B4"/>
<path d="M53.7205 276.093C56.1108 277.656 58.0414 277.656 58.5931 276.277C59.1447 275.174 55.3753 272.967 51.8817 271.588C49.5834 270.669 47.1011 269.198 47.1011 269.198L38.3672 280.598C38.3672 280.598 52.1576 288.228 53.9043 287.217C54.9156 286.666 54.5479 285.838 54.5479 285.838C54.5479 285.838 55.835 286.757 56.6624 286.298C57.4898 285.838 57.306 284.919 57.306 284.919C57.306 284.919 58.5931 285.562 59.0527 284.367C59.6043 283.172 56.7543 279.495 53.7205 276.093Z" fill="#B2614E"/>
<path d="M56.8462 285.195C56.8462 285.195 55.3753 282.62 52.6172 280.23L53.2607 279.586C56.1108 282.069 57.5817 284.643 57.6737 284.735L56.8462 285.195Z" fill="#262626"/>
<path d="M54.1774 286.206C54.1774 286.206 52.3387 284.091 50.5 282.436L51.0516 281.701C52.9823 283.356 54.821 285.47 54.9129 285.562L54.1774 286.206Z" fill="#262626"/>
<path d="M32.6611 231.872L32.3853 246.214L52.2434 266.623L36.4304 287.217C36.4304 287.217 -1.07936 267.543 0.0238674 244.283C1.1271 221.023 14.2739 203.831 19.1465 201.165C24.111 198.499 44.153 196.017 44.153 196.017" fill="#F1F1F1"/>
<path d="M87.2734 247.684L105.936 275.725C106.488 274.805 107.132 273.794 107.591 272.875L87.2734 247.684Z" fill="#737373"/>
<path d="M97.3891 262.027C97.3891 262.027 92.0569 272.6 85.4375 281.334C85.4375 281.334 92.9762 274.714 99.2279 263.866" fill="#737373"/>
<path d="M71.6382 157.588C70.6269 157.772 69.6156 157.772 68.6963 157.588C66.5818 157.312 64.3753 156.301 62.9043 154.83C62.1688 155.933 60.8817 156.761 59.5946 157.037C58.2156 157.312 56.3769 157.312 55.2737 156.577C54.2624 160.53 51.1366 163.84 47.3672 165.127C47.4591 163.012 48.0107 158.324 50.6769 154.554C52.6995 151.796 56.0091 149.59 61.1576 149.314C65.6624 149.13 68.9721 152.072 71.0866 156.393V156.485C71.2705 156.761 71.4544 157.129 71.6382 157.588Z" fill="#262626"/>
<path d="M50.7647 165.402C50.1212 164.483 49.018 164.115 47.9147 164.207C46.8115 164.299 45.8921 164.942 45.1567 165.77C43.5938 167.608 43.5018 170.642 45.0647 172.573C46.6276 174.504 49.4776 175.147 51.6841 174.044" fill="#B2614E"/>
<path d="M47.8273 171.471C47.2757 170.367 47.1837 169.172 47.4595 167.977L46.1724 168.529L45.8047 167.701L48.0111 166.782L48.6547 167.426C48.195 168.621 48.195 170 48.7466 171.195L47.8273 171.471Z" fill="#262626"/>
<mask id="mask0_574_23511" style="mask-type:luminance" maskUnits="userSpaceOnUse" x="0" y="194" width="145" height="94">
<path d="M123.677 204.108L105.106 231.596C105.106 231.596 89.937 204.567 85.6161 200.43C81.2032 196.201 63.5515 194.73 63.5515 194.73C59.3224 205.119 44.153 196.017 44.153 196.017C44.153 196.017 24.0191 198.592 19.1465 201.166C14.182 203.832 1.1271 221.024 0.0238674 244.284C-1.07936 267.543 36.4304 287.218 36.4304 287.218L52.2434 266.624L49.7611 264.142C76.5144 263.682 113.013 262.763 118.437 261.659C127.171 259.913 144.823 214.772 144.823 214.772L123.677 204.108Z" fill="white"/>
</mask>
<g mask="url(#mask0_574_23511)">
<path d="M55.9167 205.027C49.4812 205.027 42.2183 201.625 38.6328 196.661L39.3683 196.109C43.3215 201.625 52.0554 205.027 58.7667 203.832C64.9264 202.636 69.1555 197.764 70.2587 190.409L71.1781 190.501C69.9829 198.315 65.57 203.464 58.9506 204.659C57.9393 204.935 56.928 205.027 55.9167 205.027Z" fill="white"/>
</g>
<path d="M45.7635 259.936L28.2188 282.161L28.9404 282.731L46.4851 260.505L45.7635 259.936Z" fill="white"/>
<path d="M149.199 259.995L117.234 284.639L117.796 285.367L149.761 260.723L149.199 259.995Z" fill="#262626"/>
<path d="M202.758 143.522C200.551 143.797 197.334 143.062 197.885 141.039C198.437 138.925 200.919 140.028 203.401 139.66C205.884 139.293 210.389 137.822 210.389 137.822L217.284 150.509C217.284 150.509 202.482 155.841 200.827 154.646C199.908 153.91 200.46 153.175 200.46 153.175C200.46 153.175 198.989 153.91 198.253 153.359C197.518 152.807 197.885 151.888 197.885 151.888C197.885 151.888 196.598 152.347 196.23 151.06C195.863 149.589 199.264 146.463 202.758 143.522Z" fill="#B2614E"/>
<path d="M198.15 152.071L197.414 151.52C197.506 151.428 199.345 149.129 202.562 147.107L203.022 147.842C200.08 149.773 198.241 152.071 198.15 152.071Z" fill="#262626"/>
<path d="M200.722 153.451L200.078 152.716C200.17 152.624 202.285 150.785 204.491 149.498L204.951 150.325C202.836 151.612 200.722 153.451 200.722 153.451Z" fill="#262626"/>
<path d="M208.633 144.993C207.162 144.993 205.691 144.35 204.68 143.246L205.415 142.603C206.426 143.798 208.081 144.258 209.552 143.982L209.736 144.901C209.368 144.901 209.001 144.993 208.633 144.993Z" fill="#262626"/>
<path d="M258.648 86.4304L267.75 93.4175L280.897 87.3498L277.219 59.1255L267.107 65.1013L261.774 68.2271L261.407 76.0417L261.223 80.7304L258.648 86.4304Z" fill="#B2614E"/>
<path d="M267.108 65.1006L261.776 68.2264L261.5 76.0409C265.637 74.57 269.131 71.4442 270.877 67.399C269.498 66.5716 268.303 65.8361 267.108 65.1006Z" fill="#262626"/>
<path d="M279.611 52.6898C279.611 52.7818 279.611 52.7817 279.611 52.8737C279.611 53.1495 279.611 53.3334 279.611 53.3334L279.243 54.0689L278.6 55.264L271.797 68.5028C271.797 68.5028 263.155 75.5818 255.984 67.6753C251.847 63.0785 251.938 52.0463 255.432 44.1398C255.8 43.3124 256.168 42.5769 256.627 41.8414C256.627 41.8414 256.627 41.8414 256.627 41.7495C256.995 41.1059 257.363 40.5543 257.73 40.0027C260.029 36.8769 263.155 35.0381 266.924 35.4059C272.072 35.9575 275.198 38.4398 277.037 41.3817C279.151 44.6914 279.519 48.5527 279.611 50.943C279.611 51.7704 279.611 52.3221 279.611 52.6898Z" fill="#B2614E"/>
<path d="M260.67 59.7695C260.21 59.6776 259.75 59.4937 259.474 59.0341C259.199 58.6663 259.107 58.1147 259.199 57.655L260.394 51.6792L261.313 51.8631L260.118 57.8389C260.026 58.1147 260.118 58.2986 260.302 58.4824C260.486 58.6663 260.67 58.8502 260.945 58.8502L260.67 59.7695Z" fill="#262626"/>
<path d="M265.174 52.7819C265.082 53.2416 265.358 53.6093 265.634 53.7013C266.002 53.7013 266.278 53.4254 266.369 52.9658C266.461 52.5061 266.186 52.1383 265.91 52.0464C265.542 51.9545 265.266 52.3222 265.174 52.7819Z" fill="#262626"/>
<path d="M256.166 51.7707C256.075 52.2303 256.35 52.5981 256.626 52.69C256.994 52.69 257.27 52.4142 257.362 51.9545C257.454 51.4949 257.178 51.1271 256.902 51.0352C256.534 50.9432 256.166 51.311 256.166 51.7707Z" fill="#262626"/>
<path d="M262.318 62.0679H262.227L262.318 61.1486C262.686 61.1486 263.054 61.0566 263.238 60.7808C263.514 60.505 263.606 60.1373 263.606 59.8615L264.525 59.7695C264.525 60.4131 264.341 60.9647 263.881 61.4244C263.422 61.8841 262.87 62.0679 262.318 62.0679Z" fill="#262626"/>
<path d="M267.746 48.9208C268.022 49.0127 268.205 49.1966 268.389 49.3804C268.573 49.5643 268.665 49.8401 268.573 50.1159C268.481 50.4837 267.93 50.6675 267.47 50.6675C266.551 50.6675 265.539 50.4837 264.712 50.024C264.436 49.8401 264.068 49.6562 264.068 49.2885C263.976 48.553 264.988 48.3691 265.355 48.3691C266.275 48.3691 267.102 48.553 267.746 48.9208Z" fill="#262626"/>
<path d="M258.185 47.5418C258.369 47.6337 258.645 47.7257 258.829 47.8176C259.013 47.9095 259.105 48.1853 259.105 48.3692C259.013 48.7369 258.645 48.9208 258.277 49.0128C257.45 49.1966 256.622 49.1047 255.795 48.9208C255.519 48.8289 255.243 48.645 255.151 48.3692C254.967 47.7256 255.795 47.4498 256.163 47.3579C256.806 47.3579 257.542 47.4498 258.185 47.5418Z" fill="#262626"/>
<path d="M266.087 307.352L267.742 283.632H240.161L226.371 301.652C224.532 304.042 226.279 307.444 229.221 307.444H250.734C250.734 307.444 253.676 302.019 257.445 307.444L266.087 307.352Z" fill="#262626"/>
<path d="M231.891 286.207H271.883L276.02 217.071L278.134 183.239L278.318 180.481L251.381 143.982L231.891 286.207Z" fill="#E3051B"/>
<path d="M343.594 170.184L328.977 188.938L348.559 205.027L370.623 199.879C373.565 199.235 374.393 195.466 372.094 193.627L355.454 179.929C355.454 179.929 349.754 182.227 350.306 175.7L343.594 170.184Z" fill="#262626"/>
<path d="M269.125 170.092C269.125 170.092 270.872 198.776 276.112 217.071L278.135 183.239L269.125 170.092Z" fill="#DD4B0B"/>
<path d="M251.383 143.982L292.754 140.765C304.246 153.176 313.807 200.247 313.807 200.247L330.815 183.239L351.961 207.326C351.961 207.326 323.46 248.881 305.533 243.917C276.665 235.734 268.851 168.621 268.851 168.621" fill="#E3051B"/>
<path d="M255.41 142.911L239.352 286.173L240.265 286.275L256.324 143.014L255.41 142.911Z" fill="white"/>
<path d="M272.794 155.29C270.587 157.129 268.748 157.313 267.921 156.026C267.277 155.014 270.771 152.348 273.989 150.601C276.195 149.406 278.494 147.751 278.494 147.751L288.515 158.14C288.515 158.14 275.644 167.242 273.805 166.506C272.702 166.047 273.069 165.219 273.069 165.219C273.069 165.219 271.874 166.322 270.955 165.955C270.036 165.587 270.219 164.668 270.219 164.668C270.219 164.668 269.024 165.403 268.473 164.3C267.737 162.921 270.128 158.968 272.794 155.29Z" fill="#B2614E"/>
<path d="M270.687 164.759L269.859 164.392C269.951 164.3 271.146 161.542 273.629 158.783L274.272 159.427C271.882 162.001 270.687 164.667 270.687 164.759Z" fill="#262626"/>
<path d="M273.439 165.404L272.703 164.852C272.795 164.76 274.266 162.462 276.105 160.531L276.748 161.175C275.002 163.013 273.439 165.404 273.439 165.404Z" fill="#262626"/>
<path d="M310.215 118.7C310.215 118.7 309.48 125.411 303.044 132.674C300.562 135.432 297.252 138.282 292.747 140.765C285.668 144.81 276.751 145.913 269.12 145.913C259.375 145.913 251.376 143.982 251.376 143.982V131.111C251.376 131.203 250.365 133.502 247.791 136.719C246.044 138.834 243.654 141.316 240.252 143.89C232.437 149.866 216.165 154.739 216.165 154.739L207.891 134.973L229.771 114.931C229.771 114.931 239.7 88.5451 244.021 84.7758C247.239 82.0177 261.397 80.6387 261.397 80.6387C266.454 96.7274 280.336 81.9258 280.336 81.9258L310.215 118.7Z" fill="#B4B4B4"/>
<path d="M269.125 145.82C276.848 145.912 285.673 144.809 292.844 140.763C297.257 138.189 300.659 135.431 303.141 132.673L292.385 115.021L294.04 125.134L269.125 145.82Z" fill="#737373"/>
<path d="M292.293 115.023L296.154 125.872L274.273 145.914L287.144 164.76C287.144 164.76 321.161 146.649 323.183 129.825C325.206 113.001 307.003 85.6956 300.199 82.9375C294.499 80.6391 280.065 82.1101 280.065 82.1101" fill="#B4B4B4"/>
<path d="M276.024 52.4141C276.667 51.5867 277.863 51.219 278.966 51.4028C280.069 51.5867 280.988 52.3222 281.54 53.1496C283.011 55.1722 282.827 58.1142 281.172 59.9529C279.517 61.7916 276.575 62.2513 274.461 60.9642" fill="#B2614E"/>
<path d="M278.593 58.6658L277.766 58.2061C278.409 57.1029 278.501 55.7238 278.133 54.5287L278.777 53.9771L280.891 55.0803L280.524 55.9077L279.237 55.2641C279.42 56.3674 279.145 57.6545 278.593 58.6658Z" fill="#262626"/>
<path d="M251.381 131.111C251.289 131.203 250.369 133.502 247.703 136.719L251.013 116.585L251.381 131.111Z" fill="#737373"/>
<path d="M313.805 200.247L315.184 205.027L322.171 191.789L313.805 200.247Z" fill="#DD4B0B"/>
<path d="M279.607 51.035C278.688 50.5753 277.769 50.0237 277.033 49.3801C274.827 47.5414 272.896 45.4269 272.436 42.5769C267.38 42.8527 262.323 41.9333 257.727 40.0027C260.025 36.8769 263.151 35.0381 266.92 35.4059C272.069 35.9575 275.194 38.4398 277.033 41.3817C279.148 44.7833 279.515 48.6446 279.607 51.035Z" fill="#262626"/>
<path d="M334.338 187.269L317.562 204.683L318.225 205.321L335 187.907L334.338 187.269Z" fill="white"/>
<path d="M280.307 140.485L279.547 141.002L293.258 161.141L294.018 160.623L280.307 140.485Z" fill="#262626"/>
<path d="M213.173 130.278L212.336 130.658L222.319 152.68L223.157 152.3L213.173 130.278Z" fill="#262626"/>
<path d="M288.52 307.444C287.417 301.836 288.152 295.769 290.45 290.252C292.841 284.736 296.794 279.956 301.575 276.922C301.942 276.738 302.31 276.462 302.586 276.278C302.31 274.164 302.678 271.865 303.597 269.935C305.16 266.533 308.47 264.051 312.147 263.407L312.331 264.327C308.93 264.878 305.896 267.177 304.425 270.302C303.597 272.049 303.321 273.888 303.505 275.819C306.171 274.531 308.654 274.164 310.768 274.715C312.607 275.175 314.17 276.738 314.905 278.485C315.457 279.956 315.365 281.427 314.63 282.622C313.526 284.369 311.044 285.288 308.838 284.644C306.907 284.185 305.252 282.714 304.057 280.691C303.413 279.588 302.954 278.485 302.77 277.29C302.586 277.381 302.31 277.565 302.034 277.749C297.346 280.691 293.576 285.288 291.278 290.62C288.979 295.952 288.336 301.928 289.347 307.353L288.52 307.444ZM303.597 276.738C303.781 277.933 304.241 279.128 304.884 280.231C305.988 282.07 307.459 283.357 309.113 283.725C310.952 284.185 312.975 283.541 313.894 282.07C314.446 281.151 314.538 279.956 314.078 278.761C313.434 277.198 312.055 275.911 310.584 275.543C308.47 275.083 306.171 275.451 303.597 276.738Z" fill="#262626"/>
<path d="M84.0574 307.719C77.9896 304.318 72.8412 298.801 69.7154 292.366C66.5896 286.022 65.3944 278.667 66.4057 271.68L67.2331 271.405C77.438 281.885 84.0574 295.308 84.8848 307.351H84.3332L84.0574 307.719ZM67.1412 272.784C66.4057 279.311 67.6009 286.114 70.5428 291.998C73.4848 298.066 78.2654 303.214 83.8735 306.524C82.7703 295.216 76.6106 282.805 67.1412 272.784Z" fill="#262626"/>
<path d="M83.7761 307.352C82.5809 291.079 85.0632 274.53 91.131 259.361L91.9584 259.729C85.9825 274.714 83.5003 291.263 84.6954 307.352H83.7761Z" fill="#262626"/>
<path d="M90.9483 261.383C93.4305 262.211 96.3725 261.383 98.2112 259.637C99.7741 258.166 100.693 255.959 100.602 253.845C100.418 251.73 99.2225 249.708 97.2918 248.512C94.9015 247.133 91.6838 247.317 89.5692 248.972C85.616 251.822 85.8918 259.637 90.9483 261.383Z" fill="white"/>
<path d="M322.172 307.26C322.172 307.26 326.585 284.092 349.017 307.352L322.172 307.26Z" fill="#B4B4B4"/>
<path d="M331.911 159.887C331.267 159.887 330.624 159.795 330.072 159.611C328.141 158.967 326.854 157.22 326.486 154.922C326.119 152.348 327.038 149.774 328.785 148.487C330.715 147.016 333.657 146.924 335.772 148.119C337.519 149.13 338.622 150.969 338.806 152.899C338.99 154.738 338.162 156.761 336.691 158.048C335.312 159.243 333.657 159.887 331.911 159.887ZM332.554 148.211C331.359 148.211 330.256 148.578 329.336 149.222C327.865 150.325 327.038 152.624 327.406 154.83C327.682 156.761 328.785 158.232 330.44 158.783C332.278 159.427 334.485 158.875 336.048 157.404C337.335 156.209 337.978 154.554 337.886 152.991C337.795 151.337 336.783 149.774 335.312 148.946C334.485 148.395 333.474 148.211 332.554 148.211Z" fill="white"/>
<path d="M45.3403 121.089C44.6968 121.089 44.0532 120.997 43.5016 120.813C41.571 120.17 40.2839 118.423 39.9161 116.125C39.5484 113.55 40.4677 110.976 42.2145 109.689C44.1452 108.218 47.0871 108.126 49.2016 109.321C50.9484 110.333 52.0517 112.171 52.2355 114.102C52.4194 115.941 51.592 117.963 50.121 119.25C48.742 120.446 46.9952 121.089 45.3403 121.089ZM43.7774 119.894C45.6161 120.538 47.8226 119.986 49.3855 118.515C50.6726 117.32 51.3162 115.665 51.2242 114.102C51.1323 112.447 50.121 110.884 48.65 110.057C46.8113 109.046 44.3291 109.138 42.6742 110.425C41.2032 111.528 40.3758 113.826 40.7436 116.033C41.1113 117.963 42.2145 119.342 43.7774 119.894Z" fill="#262626"/>
<path d="M171.026 57.1941C170.842 52.7811 169.279 48.3682 166.613 44.5989C163.947 40.7376 160.362 37.8875 156.225 36.2327L155.949 35.865L154.938 15.3633H155.857L156.868 35.5891C161.005 37.3359 164.683 40.3698 167.349 44.2311C170.107 48.1844 171.67 52.6892 171.854 57.3779L171.026 57.1941Z" fill="#262626"/>
<path d="M373.283 306.892H0.0234375V307.811H373.283V306.892Z" fill="#262626"/>
<path fill-rule="evenodd" clip-rule="evenodd" d="M165.522 140.332C165.07 140.945 163.426 142.978 161.413 143.184C161.295 143.195 161.178 143.201 161.065 143.201C157.325 143.201 157.034 137.069 157.034 135.189V131.469L157.206 131.626C158.36 132.691 158.584 133.775 158.565 135.074C158.608 135.919 159.211 136.299 159.79 136.299C160.378 136.299 161.016 135.911 161.026 135.058C161.044 133.714 161.145 132.813 162.393 131.628L162.565 131.464V139.024C162.565 139.721 163.113 140.268 163.811 140.268C164.521 140.268 165.056 139.733 165.056 139.024V129.579C165.056 128.975 164.602 128.448 163.999 128.354C163.91 128.339 163.817 128.331 163.723 128.331C162.372 128.331 160.656 129.861 159.89 130.825L159.81 130.926L159.73 130.825C158.974 129.862 157.262 128.333 155.89 128.333C155.714 128.333 155.546 128.359 155.393 128.411C154.905 128.575 154.564 129.055 154.564 129.579V135.322C154.564 135.658 154.574 136.016 154.591 136.33C154.815 140.416 156.074 145.354 160.797 145.674C160.914 145.682 161.028 145.685 161.141 145.685C162.072 145.685 162.927 145.414 163.754 144.855L164.094 144.625L163.901 144.987C163.108 146.471 161.587 148.977 160.309 149.08C160.267 149.085 160.218 149.089 160.169 149.089C158.154 149.089 154.884 143.569 153.981 141.471C152.851 138.849 151.951 135.851 151.688 133.835L151.645 133.525C151.348 131.372 151.133 129.817 153.155 128.617C153.257 128.556 153.805 128.237 154.012 128.131C155.965 127.132 160.823 125.737 164.298 125.737C166.387 125.737 167.642 126.228 168.029 127.196C169.441 130.2 167.438 137.988 165.522 140.332ZM168.856 124.399C167.836 123.661 166.275 123.286 164.217 123.286C159.955 123.286 154.64 124.902 151.964 126.465C149.015 128.171 148.711 130.586 149.176 133.931C149.476 136.007 150.318 139.379 151.781 142.614C152.195 143.53 155.955 151.572 160.217 151.572H160.218C160.285 151.572 160.351 151.569 160.419 151.566C162.82 151.41 165.201 148.618 167.495 143.268C168.396 141.182 169.143 139.175 169.716 137.302C170.739 133.931 171.677 129.291 170.333 126.317C169.977 125.522 169.62 124.953 168.856 124.399Z" fill="white"/>
</svg>
