<svg xmlns="http://www.w3.org/2000/svg" width="173" height="399" viewBox="0 0 173 399" fill="none">
<path opacity="0.4" fill-rule="evenodd" clip-rule="evenodd" d="M230.347 239.923C224.04 248.556 201.128 277.161 173.071 280.065C171.429 280.22 169.799 280.308 168.225 280.308C116.097 280.308 112.044 193.99 112.044 167.528V115.166L114.429 117.385C130.526 132.371 133.639 147.628 133.375 165.917C133.979 177.803 142.384 183.16 150.449 183.16C158.643 183.16 167.538 177.692 167.685 165.685C167.935 146.773 169.339 134.085 186.737 117.404L189.13 115.101V221.509C189.13 231.327 196.761 239.026 206.495 239.026C216.394 239.026 223.848 231.487 223.848 221.509V88.5743C223.848 80.0626 217.515 72.6452 209.121 71.3305C207.872 71.1139 206.581 71.0037 205.268 71.0037C186.443 71.0037 162.515 92.5337 151.849 106.111L150.732 107.532L149.615 106.103C139.074 92.5489 115.222 71.0303 96.0946 71.0303C93.6376 71.0303 91.3052 71.3989 89.1729 72.1285C82.3682 74.4312 77.6166 81.1987 77.6166 88.5743V169.401C77.6166 174.136 77.7562 179.174 77.994 183.597C81.1152 241.105 98.661 310.608 164.485 315.114C166.112 315.221 167.712 315.274 169.278 315.274C182.261 315.274 194.172 311.451 205.702 303.582L210.439 300.344L207.751 305.436C196.705 326.328 175.502 361.602 157.684 363.046C157.095 363.129 156.412 363.175 155.729 363.175C127.642 363.183 82.0738 285.483 69.4909 255.954C53.7416 219.054 41.189 176.856 37.5243 148.475L37.9318 144.105C32.7878 113.809 29.795 91.9181 57.9762 75.024C59.3952 74.1728 67.034 69.6776 69.9136 68.1956C97.1438 54.1247 164.851 34.4908 213.28 34.4908C242.398 34.4908 259.898 41.4066 265.284 55.0329C284.966 97.3139 257.052 206.932 230.347 239.923ZM276.751 15.663C262.534 5.27041 240.783 0 212.1 0C152.692 0 78.6104 22.7498 41.3147 44.7434C0.214728 68.7547 -4.03113 102.752 2.45655 149.829C6.63825 179.057 18.3719 226.517 38.7634 272.04C44.5378 284.944 96.9374 398.131 156.346 398.131H156.353C157.285 398.131 158.214 398.096 159.153 398.047C192.626 395.858 225.812 356.556 257.786 281.254C270.335 251.897 280.747 223.645 288.741 197.274C303 149.836 316.073 84.5203 297.342 42.661C292.375 31.4705 287.405 23.4565 276.751 15.663Z" fill="#E7E7E7"/>
</svg>
